<svg xmlns="http://www.w3.org/2000/svg">
    <!-- <symbol id="buySteps_1" viewBox="0 0 56 39">
        <path
            d="m2 10.167 7.863 5.292c.52.35 1.174.541 1.85.541h32.574a3.33 3.33 0 0 0 1.85-.54L54 10.166m-41.889 14h.029m31.749 0h.029M16.908 2h22.184c2.073 0 3.987.897 5.016 2.351l8.37 11.83c.997 1.41 1.522 3.007 1.522 4.631v13.855C54 35.955 52.707 37 51.111 37h-2.889c-1.595 0-2.889-1.045-2.889-2.333v-2.334H10.667v2.334c0 1.288-1.294 2.333-2.89 2.333H4.89C3.293 37 2 35.955 2 34.667V20.812c0-1.624.525-3.22 1.523-4.63l8.369-11.83C12.921 2.896 14.835 2 16.909 2Zm-3.352 22.167c0 .644-.647 1.166-1.445 1.166s-1.444-.522-1.444-1.166c0-.645.646-1.167 1.444-1.167.798 0 1.445.522 1.445 1.167Zm31.777 0c0 .644-.646 1.166-1.444 1.166-.798 0-1.445-.522-1.445-1.166 0-.645.647-1.167 1.445-1.167.797 0 1.444.522 1.444 1.167Z"
            stroke="gray" stroke-width="3" stroke-linecap="round" stroke-linejoin="round" />
    </symbol> -->
    <symbol id="buySteps_1" viewBox="0 0 32 32">
        <path
            d="m31.008 27.231-7.58-6.447c-.784-.705-1.622-1.029-2.299-.998a11.954 11.954 0 0 0 2.87-7.787c0-6.627-5.373-12-12-12s-12 5.373-12 12 5.373 12 12 12c2.972 0 5.691-1.081 7.787-2.87-.031.677.293 1.515.998 2.299l6.447 7.58c1.104 1.226 2.907 1.33 4.007.23s.997-2.903-.23-4.007zM12 20a8 8 0 1 1 0-16 8 8 0 0 1 0 16z" />
    </symbol>
    <symbol id="buySteps_2" viewBox="0 0 36 32">
        <path
            d="M15 4c-1.583 0-3.112.248-4.543.738-1.341.459-2.535 1.107-3.547 1.926C5.034 8.182 4 10.127 4 12.138c0 1.125.315 2.217.935 3.247.646 1.073 1.622 2.056 2.821 2.842a3.998 3.998 0 0 1 1.761 2.748c.028.187.051.375.068.564.085-.079.169-.16.254-.244a4 4 0 0 1 3.326-1.134c.605.077 1.223.116 1.836.116 1.583 0 3.112-.248 4.543-.738 1.341-.459 2.535-1.107 3.547-1.926 1.876-1.518 2.91-3.463 2.91-5.474s-1.033-3.956-2.91-5.474c-1.012-.819-2.206-1.467-3.547-1.926a13.992 13.992 0 0 0-4.543-.738zm0-4c8.284 0 15 5.435 15 12.139s-6.716 12.139-15 12.139c-.796 0-1.576-.051-2.339-.147C9.439 27.34 5.718 27.916 2 28v-.785c2.008-.98 3.625-2.765 3.625-4.804 0-.285-.022-.564-.063-.837C2.17 19.349 0 15.949 0 12.14 0 5.436 6.716.001 15 .001zm16.125 27.209c0 1.748 1.135 3.278 2.875 4.118V32c-3.223-.072-6.181-.566-8.973-3.316-.661.083-1.337.126-2.027.126-2.983 0-5.732-.805-7.925-2.157 4.521-.016 8.789-1.464 12.026-4.084 1.631-1.32 2.919-2.87 3.825-4.605.961-1.84 1.449-3.799 1.449-5.825 0-.326-.014-.651-.039-.974C34.604 13.038 36 15.591 36 18.405c0 3.265-1.88 6.179-4.82 8.086a4.722 4.722 0 0 0-.055.718z" />
    </symbol>
    <symbol id="buySteps_3" viewBox="0 0 53 39">
        <path
            d="M42.452.661c-1.535 1.424-3.422 2.96-5.255 3.35-3.402.723-7.061-.943-9.872-.497-.182.03-.359.064-.533.095-.48-.13-.986-.238-1.52-.323a7.403 7.403 0 0 0-1.157-.086c-1.106.003-2.214.195-3.31.37-1.097.178-2.18.345-3.202.345a7.33 7.33 0 0 1-1.557-.153c-.677-.141-1.412-.497-2.15-.995-.74-.494-1.478-1.128-2.178-1.775a3.425 3.425 0 0 0-1.07-.686A3.201 3.201 0 0 0 9.46.084c-.63 0-1.236.17-1.808.435a7.475 7.475 0 0 0-1.453.913c-.819.64-1.596 1.452-2.317 2.36a21.669 21.669 0 0 0-2.726 4.51c-.348.782-.634 1.56-.835 2.311C.121 11.365 0 12.09 0 12.788c0 .367.033.729.118 1.08.085.356.223.703.43 1.018a.983.983 0 0 0 .22.243c.013.012.456.381.937.862.241.243.49.513.698.772.206.251.367.502.427.643.272.604.966 2.077 1.886 3.725.462.823.98 1.69 1.537 2.518.282.416.574.825.873 1.211-.815 1.058-.81 2.61.081 3.66.994 1.176 2.707 1.283 3.828.242l.078-.072c-.483 1.008-.366 2.264.392 3.16.993 1.173 2.707 1.281 3.83.24l.44-.42c-.602 1.036-.522 2.405.286 3.36.995 1.171 2.709 1.28 3.83.242l.679-.643c-.64 1.044-.572 2.442.25 3.415.993 1.173 2.708 1.282 3.83.241l1.097-.986c.103.053.204.1.297.145l.75.458-.007-.005c.375.233.763.423 1.166.555.403.133.821.21 1.247.21.46 0 .93-.093 1.372-.298.44-.203.844-.518 1.18-.916.402-.474.668-1.03.804-1.608a3.483 3.483 0 0 0 2.7-.095 3.639 3.639 0 0 0 1.254-.959A3.854 3.854 0 0 0 37.354 33a3.47 3.47 0 0 0 2.185-.245 3.632 3.632 0 0 0 1.255-.958 3.856 3.856 0 0 0 .87-1.97c.106.01.21.013.313.013.6 0 1.189-.136 1.735-.377a4.105 4.105 0 0 0 1.457-1.076c.379-.45.665-.973.87-1.538.204-.566.323-1.17.325-1.79a4.23 4.23 0 0 0-.055-.68c2.09-2.434 3.195-6.488 3.675-7.552.552-1.23 2.637-2.975 2.637-2.975 2.25-3.398-6.086-16.978-10.169-13.19Zm1.558 25.385c-.119.33-.292.634-.463.833-.156.187-.4.368-.684.495a2.26 2.26 0 0 1-.886.195c-.186 0-.357-.03-.495-.079-.009-.004-.017-.006-.023-.01l-3.095-3.125a1.052 1.052 0 0 0-1.534.029 1.173 1.173 0 0 0 .027 1.605l2.495 2.522c.01.025.017.05.029.075.102.213.156.453.156.69a1.54 1.54 0 0 1-.873 1.4 1.4 1.4 0 0 1-1.56-.255l-.063-.06c-.014-.013-.02-.029-.034-.044l-2.713-2.964a1.048 1.048 0 0 0-1.531-.037 1.176 1.176 0 0 0-.036 1.607l2.301 2.515.013.027c.142.242.213.52.213.8-.001.366-.12.72-.369 1.015h.001a1.52 1.52 0 0 1-.504.387 1.43 1.43 0 0 1-1.563-.256l-.042-.036-.838-.706-1.375-1.527a1.052 1.052 0 0 0-1.534-.046 1.174 1.174 0 0 0-.045 1.606l1.305 1.448c.134.238.206.507.206.78-.003.363-.12.719-.368 1.01-.15.178-.29.28-.438.349a1.164 1.164 0 0 1-.49.103c-.175 0-.374-.032-.595-.105a3.419 3.419 0 0 1-.709-.34l-.006-.006-.384-.232c1.06-1.048 1.144-2.795.17-3.946-.98-1.156-2.663-1.274-3.783-.279l.202-.19c1.123-1.04 1.225-2.835.231-4.008a2.628 2.628 0 0 0-3.828-.242l-.665.627c.643-1.04.575-2.442-.25-3.415-.994-1.173-2.706-1.282-3.828-.241l-.883.84c.414-.982.277-2.171-.45-3.028-.993-1.174-2.708-1.282-3.828-.242l-1.867 1.734a20.624 20.624 0 0 1-.702-.98c-.764-1.137-1.483-2.405-2.052-3.492a47.077 47.077 0 0 1-1.18-2.41 4.383 4.383 0 0 0-.34-.608 8.217 8.217 0 0 0-.729-.928 14.456 14.456 0 0 0-1.086-1.09 14.05 14.05 0 0 0-.362-.323c-.019-.045-.037-.1-.054-.17a2.356 2.356 0 0 1-.054-.53c0-.359.06-.815.183-1.33.215-.897.624-1.957 1.162-3.013.806-1.591 1.907-3.186 3.03-4.33.561-.576 1.125-1.035 1.636-1.334.255-.148.496-.258.711-.326.215-.07.406-.1.57-.1.158 0 .291.026.422.075.127.054.256.13.397.26.743.691 1.558 1.394 2.446 1.99.884.592 1.842 1.085 2.889 1.31a9.496 9.496 0 0 0 1.988.195c1.238-.001 2.43-.192 3.534-.37.278-.046.55-.089.815-.131-.828.597-1.63 1.306-2.482 2.138-2.432 2.375-4.529 5.276-5.692 6.594-1.162 1.317 1 3.602 4.442 2.554 3.44-1.046 4.923-3.733 4.923-3.733l4.32-1.623 4.288 1.027 10.364 9.769 1.792 1.813.035.031a.7.7 0 0 1 .175.283c.046.131.078.309.078.522.001.298-.063.656-.184.987Z" />
    </symbol>
    <symbol id="buySteps_4" viewBox="0 0 258.103 258.103">
        <path
            d="M248.904 71.976c-.974 0-1.972.14-2.969.414l-11.278 3.106-11.713-28.531c-3.317-8.082-13.125-14.657-21.862-14.657H91.474c-8.736 0-18.545 6.575-21.863 14.657L57.915 75.457 46.777 72.39a11.217 11.217 0 0 0-2.969-.414c-5.33 0-9.198 4.072-9.198 9.683v6.649c0 .272.022.539.041.808a74.54 74.54 0 0 0-12.977 10.351C7.698 113.442 0 132.026 0 151.793c0 19.768 7.698 38.351 21.675 52.326 13.978 13.977 32.561 21.676 52.327 21.676s38.35-7.698 52.327-21.676c8.147-8.146 14.142-17.865 17.742-28.465h68.937v14.154c0 6.549 5.328 11.877 11.877 11.877h15.511c6.549 0 11.877-5.328 11.877-11.877v-56.68c0-8.118-2.507-20.831-5.59-28.34l-1.891-4.604h1.434c6.549 0 11.877-5.328 11.877-11.877v-6.649c0-5.61-3.869-9.682-9.199-9.682zM84.147 50.58c1.984-4.835 7.885-8.79 13.11-8.79h98.041c5.226 0 11.126 3.955 13.11 8.79l17.717 43.154c1.984 4.835-.668 8.79-5.894 8.79h-91.024a76.685 76.685 0 0 0-2.879-3.059C112.349 85.487 93.766 77.79 74.001 77.79c-.347 0-.689.02-1.035.025L84.147 50.58zM74.002 203.646c-13.85 0-26.871-5.395-36.665-15.189-9.794-9.793-15.187-22.813-15.187-36.664s5.394-26.871 15.187-36.665c9.794-9.793 22.815-15.187 36.665-15.187s26.871 5.394 36.665 15.187c9.793 9.794 15.187 22.814 15.187 36.665s-5.393 26.871-15.187 36.664c-9.795 9.794-22.815 15.189-36.665 15.189zm155.411-55.328a4.765 4.765 0 0 1-4.751 4.751h-33.653a4.765 4.765 0 0 1-4.751-4.751v-16.152a4.765 4.765 0 0 1 4.751-4.751h33.653a4.765 4.765 0 0 1 4.751 4.751v16.152z" />
        <path
            d="M108.154 121.659c-4.234-3.108-10.187-2.198-13.297 2.037L67.7 160.676l-16.626-12.093c-4.247-3.091-10.197-2.152-13.287 2.098a9.511 9.511 0 0 0 2.098 13.287l22.229 16.167a11.987 11.987 0 0 0 7.078 2.303c3.714 0 7.383-1.704 9.739-4.914l31.261-42.567c3.109-4.234 2.197-10.188-2.038-13.298z" />
    </symbol>
    <symbol id="buySteps_5" viewBox="0 0 32 28">
        <path
            d="M28.297 24.297c0.391-0.391 1.016-0.391 1.406 0l2 2-1.406 1.406-1.297-1.297-1.297 1.297c-0.187 0.203-0.453 0.297-0.703 0.297s-0.516-0.094-0.703-0.297l-1.297-1.297-1.297 1.297c-0.391 0.391-1.016 0.391-1.406 0l-1.297-1.297-1.297 1.297c-0.391 0.391-1.016 0.391-1.406 0l-1.297-1.297-1.297 1.297c-0.391 0.391-1.016 0.391-1.406 0l-1.297-1.297-1.297 1.297c-0.391 0.391-1.016 0.391-1.406 0l-1.297-1.297-1.297 1.297c-0.391 0.391-1.016 0.391-1.406 0l-1.297-1.297-1.297 1.297c-0.391 0.391-1.016 0.391-1.406 0l-2-2 1.406-1.406 1.297 1.297 1.297-1.297c0.391-0.391 1.016-0.391 1.406 0l1.297 1.297 1.297-1.297c0.391-0.391 1.016-0.391 1.406 0l1.297 1.297 1.297-1.297c0.391-0.391 1.016-0.391 1.406 0l1.297 1.297 1.297-1.297c0.391-0.391 1.016-0.391 1.406 0l1.297 1.297 1.297-1.297c0.391-0.391 1.016-0.391 1.406 0l1.297 1.297 1.297-1.297c0.391-0.391 1.016-0.391 1.406 0l1.297 1.297zM3.703 23.703c-0.391 0.391-1.016 0.391-1.406 0l-2-2 1.406-1.406 1.297 1.281 1.297-1.281c0.391-0.391 1.016-0.391 1.406 0l1.297 1.281 1-1v-4.578l-3.281-4.906c-0.359-0.547-0.109-1.297 0.516-1.516l2.766-0.906v-4.672h2v-2h4v-2h4v2h4v2h2v4.672l2.766 0.906c0.625 0.219 0.875 0.969 0.516 1.516l-3.281 4.906v4.578l0.297-0.281c0.391-0.391 1.016-0.391 1.406 0l1.297 1.281 1.297-1.281c0.391-0.391 1.016-0.391 1.406 0l2 2-1.406 1.406-1.297-1.297-1.297 1.297c-0.187 0.203-0.453 0.297-0.703 0.297s-0.516-0.094-0.703-0.297l-1.297-1.297-1.297 1.297c-0.391 0.391-1.016 0.391-1.406 0l-1.297-1.297-1.297 1.297c-0.391 0.391-1.016 0.391-1.406 0l-1.297-1.297-1.297 1.297c-0.391 0.391-1.016 0.391-1.406 0l-1.297-1.297-1.297 1.297c-0.391 0.391-1.016 0.391-1.406 0l-1.297-1.297-1.297 1.297c-0.391 0.391-1.016 0.391-1.406 0l-1.297-1.297zM10 6v2l6-2 6 2v-2h-2v-2h-8v2h-2z">
        </path>
    </symbol>
    <symbol id="buySteps_6" viewBox="0 0 46 46">
        <path
            d="M34.79 23.72H11.07a.79.79 0 0 0-.791.791c0 7.851 5.677 14.232 12.65 14.232 6.975 0 12.652-6.38 12.652-14.232a.79.79 0 0 0-.791-.79Zm-22.93 1.582H34a14.237 14.237 0 0 1-.53 3.162H12.421a14.23 14.23 0 0 1-.562-3.162Zm6.84 10.911a5.082 5.082 0 0 1 8.389 0 9.749 9.749 0 0 1-8.39 0Zm9.765-.79a6.966 6.966 0 0 0-5.535-3.005 6.967 6.967 0 0 0-5.535 3.012 12.303 12.303 0 0 1-4.404-5.384h19.877a12.303 12.303 0 0 1-4.404 5.384v-.008ZM22.93 0a22.93 22.93 0 1 0 0 45.86 22.93 22.93 0 0 0 0-45.86Zm0 44.278a21.348 21.348 0 1 1 0-42.696 21.348 21.348 0 0 1 0 42.696Zm3.162-29.255a.867.867 0 0 1 0-.142.93.93 0 0 1 .048-.159v-.055a.22.22 0 0 1 .055-.071.562.562 0 0 1 .222-.222s.047-.047.07-.055l7.908-3.953a.79.79 0 1 1 .711 1.407l-6.452 3.25 6.492 3.25a.79.79 0 0 1-.356 1.494.736.736 0 0 1-.356-.087l-7.907-3.953a.933.933 0 0 1-.221-.174v-.048a.519.519 0 0 1-.08-.118v-.056a.926.926 0 0 1-.047-.158.867.867 0 0 1-.087-.15Zm-15.378 3.25 6.491-3.25-6.491-3.25a.79.79 0 0 1-.2-1.339.79.79 0 0 1 .911-.068l7.907 3.953s.048.04.071.055c.094.052.17.129.222.222.023.02.042.044.055.071v.055a.93.93 0 0 1 .047.159.65.65 0 0 1 0 .284.93.93 0 0 1-.047.158v.056a.512.512 0 0 1-.08.118.172.172 0 0 0 0 .048.935.935 0 0 1-.22.174l-7.907 3.953a.736.736 0 0 1-.404.095.79.79 0 0 1-.355-1.494Z" />
    </symbol>
</svg>