<svg xmlns="http://www.w3.org/2000/svg">
    <symbol id="headerLogo" viewBox="0 0 186.23 152.57">
        <path
            d="m26.62 31.5 6.41-.82s.05-.02.04-.05c-.09-1.48-1.51-39.39 104.45-24.91 0 0-69.5-13.33-100.41 2.79-.01 0-.02.01-.02.02L26.56 31.42s.01.08.05.07Z" />
        <path
            d="M26.56 31c1.59-.2 4.68-.6 6.22-.79l.12-.02c.14-.01.04-.02-.08.04-.08.04-.15.11-.2.2-.05.07-.05.26-.05.23v-.1c.06-8.51 6.64-15.38 13.66-19.32C65.4.68 93.16 1.37 114.54 2.92c7.67.61 15.38 1.82 22.99 2.81-27.62-4.18-72.37-9.07-97.97 2.17-.27.14-1.94.91-2.19 1.04.02 0-.07.04.03-.02.07-.03.15-.17.15-.18-.06.11-.14.31-.19.42-2.56 5.58-6.16 13.39-8.71 18.95-.4.89-1.15 2.49-1.56 3.38l-.05.11c-.02.03 0 .02.03-.11.05-.28-.22-.55-.5-.51Zm.13.99c-.22.03-.47-.1-.56-.29-.1-.09-.04-.49 0-.5l.05-.11.1-.23.21-.45.41-.9c.51-1.1 1.95-4.26 2.49-5.42 1.95-4.21 5.27-11.48 7.21-15.68.03-.1.1-.21.23-.31.12-.08.16-.08.28-.14l.23-.11 1.82-.86C65.52-4.44 109.6.38 137.54 5.72c-7.48-.93-15.57-1.67-23.04-2.11-21.42-1.31-48.54-2.03-67.77 8.47-6.69 3.76-13.07 10.32-13.15 18.42v.08s0 .2-.06.28c-.06.11-.15.19-.24.24-.09.05-.22.06-.19.06h-.06l-.12.02c-1.55.2-4.65.59-6.22.79Z" />
        <path
            d="M144.59 11.5c-1.16-.96-2.59-1.55-4.08-1.78-8.47-1.3-43.09-6.16-66.39-2.9 0 0 43.17-.99 64.04 6.42l1.88.94c4.33 2.81 20.67 14.63-8.74 15.39-33.4.86-57.41-.46-57.41-.46S36.23 27.32 5.68 48.43c0 0 28.23-24.95 149.5-16.23.5.04.89-.43.75-.91 0 0-4.2-13.89-11.34-19.79Z" />
        <path
            d="M144.49 11.62c-2.27-1.98-5.47-1.87-8.34-2.39-2.94-.41-5.87-.79-8.82-1.14-17.63-1.94-35.53-3.43-53.2-1.25v-.03c16.15-.33 32.39-.02 48.41 2.3 5.34.82 10.69 1.82 15.87 3.58l.04.02 1.88.92c5.96 3.64 14.61 11.7 3.36 15.13-6.66 1.83-13.51 1.51-20.31 1.75-16.86.37-33.78.2-50.62-.59-16.74-.09-33.56 3.1-49.09 9.39-6.18 2.62-12.1 5.81-17.7 9.52l-.61-.78c.78-.62 1.54-1.13 2.35-1.6 8.81-5.14 18.8-7.88 28.68-10.14 10.76-2.33 21.86-3.84 32.83-4.76 17.81-1.49 37.38-1.76 55.24-1.12 9.56.18 20.79.99 30.35 1.55.23 0 .47.05.61 0 .36-.15.45-.5.26-.9l-.21-.65c-2.43-6.82-5.46-13.89-10.95-18.81Zm.19-.24c5.57 4.95 8.65 12.04 11.13 18.92.08.43.46.94.3 1.45-.19.63-.84.71-1.35.63-9.56-.51-20.79-1.29-30.34-1.43-17.83-.57-37.38-.23-55.16 1.33-16.42 1.51-32.96 3.99-48.6 9.34-5.08 1.91-10.3 3.9-14.66 7.18l-.61-.78c11.21-7.68 23.92-12.99 37.12-16.11 9.91-2.35 20.07-3.68 30.26-3.66l10.13.37c13.47.4 26.96.5 40.44.34 11.41-.11 37.54.31 16.43-14.22l-1.87-.95.07.03c-5.02-1.79-10.3-2.86-15.59-3.75-15.94-2.5-32.14-3.21-48.26-3.23v-.03c17.67-2.25 35.59-.83 53.24 1.04 2.95.33 5.89.71 8.83 1.1 2.51.42 6.52.54 8.5 2.42Z" />
        <path
            d="m157.65 33.57 13.67-.8c1.2-.07 2.31-.74 2.87-1.81.71-1.36.99-3.35-1.45-5.36-1.17-.96-2.6-1.53-4.09-1.75-2.89-.42-8.29-.78-8.79 2.27-.55 3.37.57 4.73 1.02 5.13.07.07.19.03.2-.07.12-1.04.83-5.66 4.39-5.41 2.9.2 4.84 1.15 5.56 1.6.25.16.43.42.45.72.06.84-.45 2.46-5.29 2.39-.27 0-.54.08-.75.25l-5.29 4.13c-.36.28-.87.26-1.2-.05l-1.29-1.22v-.02Z"
           stroke-miterlimit="10" />
        <path
            d="M37.69 40.84s35.87-15.34 114.98-4.41c0 0-35.22.83-32.34 6.86 0 0 22.18 9.76 49.25-6.6 0 0 6.7-1.38 11.23 15.84 0 0-2.74-19.32-24.23-6.95-21.49 12.37-48.85-2.33-48.85-2.33s-3.72-4 31.17-7.26c0 0-25.44-6.76-101.22 4.84Z" />
        <path
            d="M37.21 40.98c.19-.57.62-.77 1.15-.93l.86-.32c2.61-.93 6.04-1.84 8.76-2.52 34.24-7.77 70.18-5.73 104.76-1.28l-.06 1c-5.76.18-11.53.53-17.26 1.17-4.23.54-8.59 1.02-12.56 2.59-1.22.51-2.64 1.42-2.07 2.38l-.25-.24c3.89 1.51 8.14 2.31 12.35 2.65 5.82.49 11.69-.05 17.38-1.33 1.07-.28 3.53-.98 4.6-1.27l3-1.08c3.98-1.4 7.89-3.53 11.56-5.59 5.57-.1 8.48 6.96 10.07 11.31.58 1.63 1.01 3.3 1.46 4.97l-.27.06c-.68-3.28-2.3-6.48-4.89-8.54-4.07-3.23-9.73-2.28-14.18-.37-4.67 2.09-8.99 5.06-14.09 6.12-13.53 3.25-27.93-.06-40.16-6.14-2.82-5.35 27.71-7.66 31.5-8.16l-.09 1.07c-7.13-1.48-14.69-1.7-22-1.9-9.51-.06-19.05.23-28.53.95-16.52.98-34.56 3.79-51.02 5.39Zm.96-.27c13.64-2.83 29.76-4.5 43.64-5.77 11.62-1.04 23.3-1.52 34.97-1.42 7.46.21 14.9.42 22.26 1.96l3.25.71c-10.55 1.25-21.45 1.7-31.59 5.06-.84.34-1.8.74-2.4 1.39-.19.19-.1.35-.18.26 2.21 1.04 6.23 2.83 9.23 3.75 9.56 3.14 20.06 4.6 29.91 2.13 6.77-1.38 12.13-6.37 18.97-7.49 7.78-1.63 13.63 3.69 14.73 11.22l-.27.06c-.5-1.64-.99-3.29-1.62-4.88-1.6-3.95-4.47-10.42-9.38-10.5-1.91 1.15-5.81 3.25-8.47 4.35-1.62.79-4.33 1.67-6.04 2.31l-3.12.87c-10.42 2.73-21.73 2.82-31.92-.95l-.16-.06c-.25-.46-.4-1.03-.23-1.59 2-5.34 27.06-5.85 32.92-6.17l-.06 1c-18.83-2.49-38.79-4.2-57.75-3.86-18.61.35-37.5 1.85-55.3 7.6l-.84.31-.42.15s.06-.05.06-.16a.33.33 0 0 0-.18-.27Z" />
        <text transform="matrix(.38 0 0 1 0 123.04)" font-family="AcademyEngravedLetPlain, 'Academy Engraved LET'"
            font-size="102.96" letter-spacing="0em">
            <tspan x="0" y="0">BSFAUTO</tspan>
        </text>
        <path
            d="m23.71 33.57-13.67-.8c-1.2-.07-2.31-.74-2.87-1.81-.71-1.36-.99-3.35 1.45-5.36 1.17-.96 2.6-1.53 4.09-1.75 2.89-.42 8.29-.78 8.79 2.27.55 3.37-.57 4.73-1.02 5.13-.07.07-.19.03-.2-.07-.12-1.04-.83-5.66-4.39-5.41-2.9.2-4.84 1.15-5.56 1.6-.25.16-.43.42-.45.72-.06.84.45 2.46 5.29 2.39.27 0 .54.08.75.25l5.29 4.13c.36.28.87.26 1.2-.05l1.29-1.22v-.02Z"
            stroke-miterlimit="10" />
    </symbol>
    <symbol id="buySteps_1" viewBox="0 0 32 32">
        <path
            d="m31.008 27.231-7.58-6.447c-.784-.705-1.622-1.029-2.299-.998a11.954 11.954 0 0 0 2.87-7.787c0-6.627-5.373-12-12-12s-12 5.373-12 12 5.373 12 12 12c2.972 0 5.691-1.081 7.787-2.87-.031.677.293 1.515.998 2.299l6.447 7.58c1.104 1.226 2.907 1.33 4.007.23s.997-2.903-.23-4.007zM12 20a8 8 0 1 1 0-16 8 8 0 0 1 0 16z" />
    </symbol>
    <symbol id="buySteps_2" viewBox="0 0 36 32">
        <path
            d="M15 4c-1.583 0-3.112.248-4.543.738-1.341.459-2.535 1.107-3.547 1.926C5.034 8.182 4 10.127 4 12.138c0 1.125.315 2.217.935 3.247.646 1.073 1.622 2.056 2.821 2.842a3.998 3.998 0 0 1 1.761 2.748c.028.187.051.375.068.564.085-.079.169-.16.254-.244a4 4 0 0 1 3.326-1.134c.605.077 1.223.116 1.836.116 1.583 0 3.112-.248 4.543-.738 1.341-.459 2.535-1.107 3.547-1.926 1.876-1.518 2.91-3.463 2.91-5.474s-1.033-3.956-2.91-5.474c-1.012-.819-2.206-1.467-3.547-1.926a13.992 13.992 0 0 0-4.543-.738zm0-4c8.284 0 15 5.435 15 12.139s-6.716 12.139-15 12.139c-.796 0-1.576-.051-2.339-.147C9.439 27.34 5.718 27.916 2 28v-.785c2.008-.98 3.625-2.765 3.625-4.804 0-.285-.022-.564-.063-.837C2.17 19.349 0 15.949 0 12.14 0 5.436 6.716.001 15 .001zm16.125 27.209c0 1.748 1.135 3.278 2.875 4.118V32c-3.223-.072-6.181-.566-8.973-3.316-.661.083-1.337.126-2.027.126-2.983 0-5.732-.805-7.925-2.157 4.521-.016 8.789-1.464 12.026-4.084 1.631-1.32 2.919-2.87 3.825-4.605.961-1.84 1.449-3.799 1.449-5.825 0-.326-.014-.651-.039-.974C34.604 13.038 36 15.591 36 18.405c0 3.265-1.88 6.179-4.82 8.086a4.722 4.722 0 0 0-.055.718z" />
    </symbol>
    <symbol id="buySteps_3" viewBox="0 0 53 39">
        <path
            d="M42.452.661c-1.535 1.424-3.422 2.96-5.255 3.35-3.402.723-7.061-.943-9.872-.497-.182.03-.359.064-.533.095-.48-.13-.986-.238-1.52-.323a7.403 7.403 0 0 0-1.157-.086c-1.106.003-2.214.195-3.31.37-1.097.178-2.18.345-3.202.345a7.33 7.33 0 0 1-1.557-.153c-.677-.141-1.412-.497-2.15-.995-.74-.494-1.478-1.128-2.178-1.775a3.425 3.425 0 0 0-1.07-.686A3.201 3.201 0 0 0 9.46.084c-.63 0-1.236.17-1.808.435a7.475 7.475 0 0 0-1.453.913c-.819.64-1.596 1.452-2.317 2.36a21.669 21.669 0 0 0-2.726 4.51c-.348.782-.634 1.56-.835 2.311C.121 11.365 0 12.09 0 12.788c0 .367.033.729.118 1.08.085.356.223.703.43 1.018a.983.983 0 0 0 .22.243c.013.012.456.381.937.862.241.243.49.513.698.772.206.251.367.502.427.643.272.604.966 2.077 1.886 3.725.462.823.98 1.69 1.537 2.518.282.416.574.825.873 1.211-.815 1.058-.81 2.61.081 3.66.994 1.176 2.707 1.283 3.828.242l.078-.072c-.483 1.008-.366 2.264.392 3.16.993 1.173 2.707 1.281 3.83.24l.44-.42c-.602 1.036-.522 2.405.286 3.36.995 1.171 2.709 1.28 3.83.242l.679-.643c-.64 1.044-.572 2.442.25 3.415.993 1.173 2.708 1.282 3.83.241l1.097-.986c.103.053.204.1.297.145l.75.458-.007-.005c.375.233.763.423 1.166.555.403.133.821.21 1.247.21.46 0 .93-.093 1.372-.298.44-.203.844-.518 1.18-.916.402-.474.668-1.03.804-1.608a3.483 3.483 0 0 0 2.7-.095 3.639 3.639 0 0 0 1.254-.959A3.854 3.854 0 0 0 37.354 33a3.47 3.47 0 0 0 2.185-.245 3.632 3.632 0 0 0 1.255-.958 3.856 3.856 0 0 0 .87-1.97c.106.01.21.013.313.013.6 0 1.189-.136 1.735-.377a4.105 4.105 0 0 0 1.457-1.076c.379-.45.665-.973.87-1.538.204-.566.323-1.17.325-1.79a4.23 4.23 0 0 0-.055-.68c2.09-2.434 3.195-6.488 3.675-7.552.552-1.23 2.637-2.975 2.637-2.975 2.25-3.398-6.086-16.978-10.169-13.19Zm1.558 25.385c-.119.33-.292.634-.463.833-.156.187-.4.368-.684.495a2.26 2.26 0 0 1-.886.195c-.186 0-.357-.03-.495-.079-.009-.004-.017-.006-.023-.01l-3.095-3.125a1.052 1.052 0 0 0-1.534.029 1.173 1.173 0 0 0 .027 1.605l2.495 2.522c.01.025.017.05.029.075.102.213.156.453.156.69a1.54 1.54 0 0 1-.873 1.4 1.4 1.4 0 0 1-1.56-.255l-.063-.06c-.014-.013-.02-.029-.034-.044l-2.713-2.964a1.048 1.048 0 0 0-1.531-.037 1.176 1.176 0 0 0-.036 1.607l2.301 2.515.013.027c.142.242.213.52.213.8-.001.366-.12.72-.369 1.015h.001a1.52 1.52 0 0 1-.504.387 1.43 1.43 0 0 1-1.563-.256l-.042-.036-.838-.706-1.375-1.527a1.052 1.052 0 0 0-1.534-.046 1.174 1.174 0 0 0-.045 1.606l1.305 1.448c.134.238.206.507.206.78-.003.363-.12.719-.368 1.01-.15.178-.29.28-.438.349a1.164 1.164 0 0 1-.49.103c-.175 0-.374-.032-.595-.105a3.419 3.419 0 0 1-.709-.34l-.006-.006-.384-.232c1.06-1.048 1.144-2.795.17-3.946-.98-1.156-2.663-1.274-3.783-.279l.202-.19c1.123-1.04 1.225-2.835.231-4.008a2.628 2.628 0 0 0-3.828-.242l-.665.627c.643-1.04.575-2.442-.25-3.415-.994-1.173-2.706-1.282-3.828-.241l-.883.84c.414-.982.277-2.171-.45-3.028-.993-1.174-2.708-1.282-3.828-.242l-1.867 1.734a20.624 20.624 0 0 1-.702-.98c-.764-1.137-1.483-2.405-2.052-3.492a47.077 47.077 0 0 1-1.18-2.41 4.383 4.383 0 0 0-.34-.608 8.217 8.217 0 0 0-.729-.928 14.456 14.456 0 0 0-1.086-1.09 14.05 14.05 0 0 0-.362-.323c-.019-.045-.037-.1-.054-.17a2.356 2.356 0 0 1-.054-.53c0-.359.06-.815.183-1.33.215-.897.624-1.957 1.162-3.013.806-1.591 1.907-3.186 3.03-4.33.561-.576 1.125-1.035 1.636-1.334.255-.148.496-.258.711-.326.215-.07.406-.1.57-.1.158 0 .291.026.422.075.127.054.256.13.397.26.743.691 1.558 1.394 2.446 1.99.884.592 1.842 1.085 2.889 1.31a9.496 9.496 0 0 0 1.988.195c1.238-.001 2.43-.192 3.534-.37.278-.046.55-.089.815-.131-.828.597-1.63 1.306-2.482 2.138-2.432 2.375-4.529 5.276-5.692 6.594-1.162 1.317 1 3.602 4.442 2.554 3.44-1.046 4.923-3.733 4.923-3.733l4.32-1.623 4.288 1.027 10.364 9.769 1.792 1.813.035.031a.7.7 0 0 1 .175.283c.046.131.078.309.078.522.001.298-.063.656-.184.987Z" />
    </symbol>
    <symbol id="buySteps_4" viewBox="0 0 258.103 258.103">
        <path
            d="M248.904 71.976c-.974 0-1.972.14-2.969.414l-11.278 3.106-11.713-28.531c-3.317-8.082-13.125-14.657-21.862-14.657H91.474c-8.736 0-18.545 6.575-21.863 14.657L57.915 75.457 46.777 72.39a11.217 11.217 0 0 0-2.969-.414c-5.33 0-9.198 4.072-9.198 9.683v6.649c0 .272.022.539.041.808a74.54 74.54 0 0 0-12.977 10.351C7.698 113.442 0 132.026 0 151.793c0 19.768 7.698 38.351 21.675 52.326 13.978 13.977 32.561 21.676 52.327 21.676s38.35-7.698 52.327-21.676c8.147-8.146 14.142-17.865 17.742-28.465h68.937v14.154c0 6.549 5.328 11.877 11.877 11.877h15.511c6.549 0 11.877-5.328 11.877-11.877v-56.68c0-8.118-2.507-20.831-5.59-28.34l-1.891-4.604h1.434c6.549 0 11.877-5.328 11.877-11.877v-6.649c0-5.61-3.869-9.682-9.199-9.682zM84.147 50.58c1.984-4.835 7.885-8.79 13.11-8.79h98.041c5.226 0 11.126 3.955 13.11 8.79l17.717 43.154c1.984 4.835-.668 8.79-5.894 8.79h-91.024a76.685 76.685 0 0 0-2.879-3.059C112.349 85.487 93.766 77.79 74.001 77.79c-.347 0-.689.02-1.035.025L84.147 50.58zM74.002 203.646c-13.85 0-26.871-5.395-36.665-15.189-9.794-9.793-15.187-22.813-15.187-36.664s5.394-26.871 15.187-36.665c9.794-9.793 22.815-15.187 36.665-15.187s26.871 5.394 36.665 15.187c9.793 9.794 15.187 22.814 15.187 36.665s-5.393 26.871-15.187 36.664c-9.795 9.794-22.815 15.189-36.665 15.189zm155.411-55.328a4.765 4.765 0 0 1-4.751 4.751h-33.653a4.765 4.765 0 0 1-4.751-4.751v-16.152a4.765 4.765 0 0 1 4.751-4.751h33.653a4.765 4.765 0 0 1 4.751 4.751v16.152z" />
        <path
            d="M108.154 121.659c-4.234-3.108-10.187-2.198-13.297 2.037L67.7 160.676l-16.626-12.093c-4.247-3.091-10.197-2.152-13.287 2.098a9.511 9.511 0 0 0 2.098 13.287l22.229 16.167a11.987 11.987 0 0 0 7.078 2.303c3.714 0 7.383-1.704 9.739-4.914l31.261-42.567c3.109-4.234 2.197-10.188-2.038-13.298z" />
    </symbol>
    <symbol id="buySteps_5" viewBox="0 0 32 28">
        <path
            d="M28.297 24.297c0.391-0.391 1.016-0.391 1.406 0l2 2-1.406 1.406-1.297-1.297-1.297 1.297c-0.187 0.203-0.453 0.297-0.703 0.297s-0.516-0.094-0.703-0.297l-1.297-1.297-1.297 1.297c-0.391 0.391-1.016 0.391-1.406 0l-1.297-1.297-1.297 1.297c-0.391 0.391-1.016 0.391-1.406 0l-1.297-1.297-1.297 1.297c-0.391 0.391-1.016 0.391-1.406 0l-1.297-1.297-1.297 1.297c-0.391 0.391-1.016 0.391-1.406 0l-1.297-1.297-1.297 1.297c-0.391 0.391-1.016 0.391-1.406 0l-1.297-1.297-1.297 1.297c-0.391 0.391-1.016 0.391-1.406 0l-2-2 1.406-1.406 1.297 1.297 1.297-1.297c0.391-0.391 1.016-0.391 1.406 0l1.297 1.297 1.297-1.297c0.391-0.391 1.016-0.391 1.406 0l1.297 1.297 1.297-1.297c0.391-0.391 1.016-0.391 1.406 0l1.297 1.297 1.297-1.297c0.391-0.391 1.016-0.391 1.406 0l1.297 1.297 1.297-1.297c0.391-0.391 1.016-0.391 1.406 0l1.297 1.297 1.297-1.297c0.391-0.391 1.016-0.391 1.406 0l1.297 1.297zM3.703 23.703c-0.391 0.391-1.016 0.391-1.406 0l-2-2 1.406-1.406 1.297 1.281 1.297-1.281c0.391-0.391 1.016-0.391 1.406 0l1.297 1.281 1-1v-4.578l-3.281-4.906c-0.359-0.547-0.109-1.297 0.516-1.516l2.766-0.906v-4.672h2v-2h4v-2h4v2h4v2h2v4.672l2.766 0.906c0.625 0.219 0.875 0.969 0.516 1.516l-3.281 4.906v4.578l0.297-0.281c0.391-0.391 1.016-0.391 1.406 0l1.297 1.281 1.297-1.281c0.391-0.391 1.016-0.391 1.406 0l2 2-1.406 1.406-1.297-1.297-1.297 1.297c-0.187 0.203-0.453 0.297-0.703 0.297s-0.516-0.094-0.703-0.297l-1.297-1.297-1.297 1.297c-0.391 0.391-1.016 0.391-1.406 0l-1.297-1.297-1.297 1.297c-0.391 0.391-1.016 0.391-1.406 0l-1.297-1.297-1.297 1.297c-0.391 0.391-1.016 0.391-1.406 0l-1.297-1.297-1.297 1.297c-0.391 0.391-1.016 0.391-1.406 0l-1.297-1.297-1.297 1.297c-0.391 0.391-1.016 0.391-1.406 0l-1.297-1.297zM10 6v2l6-2 6 2v-2h-2v-2h-8v2h-2z">
        </path>
    </symbol>
    <symbol id="buySteps_6" viewBox="0 0 46 46">
        <path
            d="M34.79 23.72H11.07a.79.79 0 0 0-.791.791c0 7.851 5.677 14.232 12.65 14.232 6.975 0 12.652-6.38 12.652-14.232a.79.79 0 0 0-.791-.79Zm-22.93 1.582H34a14.237 14.237 0 0 1-.53 3.162H12.421a14.23 14.23 0 0 1-.562-3.162Zm6.84 10.911a5.082 5.082 0 0 1 8.389 0 9.749 9.749 0 0 1-8.39 0Zm9.765-.79a6.966 6.966 0 0 0-5.535-3.005 6.967 6.967 0 0 0-5.535 3.012 12.303 12.303 0 0 1-4.404-5.384h19.877a12.303 12.303 0 0 1-4.404 5.384v-.008ZM22.93 0a22.93 22.93 0 1 0 0 45.86 22.93 22.93 0 0 0 0-45.86Zm0 44.278a21.348 21.348 0 1 1 0-42.696 21.348 21.348 0 0 1 0 42.696Zm3.162-29.255a.867.867 0 0 1 0-.142.93.93 0 0 1 .048-.159v-.055a.22.22 0 0 1 .055-.071.562.562 0 0 1 .222-.222s.047-.047.07-.055l7.908-3.953a.79.79 0 1 1 .711 1.407l-6.452 3.25 6.492 3.25a.79.79 0 0 1-.356 1.494.736.736 0 0 1-.356-.087l-7.907-3.953a.933.933 0 0 1-.221-.174v-.048a.519.519 0 0 1-.08-.118v-.056a.926.926 0 0 1-.047-.158.867.867 0 0 1-.087-.15Zm-15.378 3.25 6.491-3.25-6.491-3.25a.79.79 0 0 1-.2-1.339.79.79 0 0 1 .911-.068l7.907 3.953s.048.04.071.055c.094.052.17.129.222.222.023.02.042.044.055.071v.055a.93.93 0 0 1 .047.159.65.65 0 0 1 0 .284.93.93 0 0 1-.047.158v.056a.512.512 0 0 1-.08.118.172.172 0 0 0 0 .048.935.935 0 0 1-.22.174l-7.907 3.953a.736.736 0 0 1-.404.095.79.79 0 0 1-.355-1.494Z" />
    </symbol>
</svg>