<svg xmlns="http://www.w3.org/2000/svg">
    <symbol id="headerLogo" viewBox="0 0 508 343.19">
        <path
            d="m70.29 86.72 17.6-2.3c.1 0 .1-.1.1-.1-.2-4.1-4.2-108.3 287.2-68.5 0 0-191.1-36.6-276.1 7.7 0 0-.1 0-.1.1l-28.9 63s.1.1.2.1Z" />
        <path
            d="M70.09 85.32c4.4-.5 12.9-1.6 17.1-2.2l.3-.1c.4 0 .1-.1-.2.1-.2.1-.4.3-.5.5s-.1.7-.1.6v-.3c.2-23.4 18.3-42.3 37.6-53.1 52.7-29 129-27.2 187.8-22.9 21.1 1.7 42.3 5 63.2 7.7-75.9-11.5-198.9-24.9-269.3 6-.7.4-5.3 2.5-6 2.9.1 0-.2.1.1-.1.2-.1.4-.5.4-.5-.2.3-.4.9-.5 1.2-7 15.3-16.9 36.8-23.9 52.1-1.1 2.4-3.2 6.8-4.3 9.3l-.1.3c-.1.1 0 .1.1-.3-.2-.6-.9-1.3-1.7-1.2Zm.4 2.7c-.6.1-1.3-.3-1.5-.8-.3-.2-.1-1.3 0-1.4l.1-.3.3-.6.6-1.2 1.1-2.5c1.4-3 5.4-11.7 6.8-14.9 5.4-11.6 14.5-31.6 19.8-43.1.1-.3.3-.6.6-.9.3-.2.4-.2.8-.4l.6-.3 5-2.4c72.5-31.4 193.7-18.2 270.5-3.5-20.6-2.6-42.8-4.6-63.3-5.8-58.9-3.6-133.5-5.6-186.3 23.3-18.5 10.4-36 28.5-36.2 50.8v.2s0 .5-.2.8-.4.5-.7.7-.6.2-.5.2h-.2l-.3.1c-4.2.4-12.7 1.5-17 2Z" />
        <path
            d="M394.59 31.72c-3.2-2.6-7.1-4.3-11.2-4.9-23.3-3.6-118.5-16.9-182.5-8 0 0 118.7-2.7 176.1 17.7 1.7.9 3.4 1.7 5.2 2.6 11.9 7.7 56.8 40.2-24 42.3-91.8 2.4-157.8-1.3-157.8-1.3s-103.5-4.9-187.5 53.1c0 0 77.6-68.6 411-44.6 1.4.1 2.4-1.2 2.1-2.5-.2 0-11.8-38.2-31.4-54.4Z" />
        <path
            d="M394.29 32.02c-6.2-5.4-15-5.1-22.9-6.6-8.1-1.1-16.1-2.2-24.2-3.1-48.5-5.3-97.7-9.4-146.3-3.4v-.1c44.4-.9 89-.1 133.1 6.3 14.7 2.3 29.4 5 43.6 9.8l.1.1 5.2 2.5c16.4 10 40.2 32.2 9.2 41.6-18.3 5-37.1 4.2-55.8 4.8-46.4 1-92.9.5-139.2-1.6-46-.2-92.3 8.5-135 25.8-17 7.2-33.3 16-48.7 26.2l-1.7-2.1c2.1-1.7 4.2-3.1 6.5-4.4 24.2-14.1 51.7-21.7 78.8-27.9 29.6-6.4 60.1-10.6 90.3-13.1 49-4.1 102.8-4.8 151.9-3.1 26.3.5 57.2 2.7 83.4 4.3.6 0 1.3.1 1.7 0 1-.4 1.2-1.4.7-2.5l-.6-1.8c-6.6-18.7-15-38.1-30.1-51.7Zm.6-.6c15.3 13.6 23.8 33.1 30.6 52 .2 1.2 1.3 2.6.8 4-.5 1.7-2.3 2-3.7 1.7-26.3-1.4-57.2-3.5-83.4-3.9-49-1.6-102.8-.6-151.7 3.7-45.1 4.2-90.6 11-133.6 25.7-14 5.3-28.3 10.7-40.3 19.7l-1.7-2.1c30.8-21.1 65.8-35.7 102.1-44.3 27.2-6.5 55.2-10.1 83.2-10.1l27.9 1c37 1.1 74.1 1.4 111.2.9 31.4-.3 103.2.9 45.2-39.1l-5.1-2.6.2.1c-13.8-4.9-28.3-7.9-42.9-10.3-43.8-6.9-88.4-8.8-132.7-8.9v-.1c48.6-6.2 97.8-2.3 146.4 2.9 8.1.9 16.2 2 24.3 3 6.7 1.1 17.7 1.5 23.2 6.7ZM430.49 92.42l37.6-2.2c3.3-.2 6.4-2 7.9-5 2-3.7 2.7-9.2-4-14.7-3.2-2.6-7.1-4.2-11.2-4.8-7.9-1.2-22.8-2.1-24.2 6.2-1.5 9.3 1.6 13 2.8 14.1.2.2.5.1.5-.2.3-2.9 2.3-15.6 12.1-14.9 8 .5 13.3 3.2 15.3 4.4.7.4 1.2 1.2 1.2 2 .2 2.3-1.2 6.8-14.5 6.6-.7 0-1.5.2-2.1.7l-14.5 11.4c-1 .8-2.4.7-3.3-.1l-3.6-3.5Z" />
        <path
            d="M100.69 112.42s98.6-42.2 316.1-12.1c0 0-96.8 2.3-88.9 18.9 0 0 61 26.8 135.4-18.1 0 0 18.4-3.8 30.9 43.5 0 0-7.5-53.1-66.6-19.1s-134.3-6.4-134.3-6.4-10.2-11 85.7-20c0 0-70-18.6-278.3 13.3Z" />
        <path
            d="M99.39 112.82c.5-1.6 1.7-2.1 3.2-2.6l2.4-.9c7.2-2.6 16.6-5.1 24.1-6.9 94.1-21.4 192.9-15.8 288-3.5l-.2 2.7c-15.8.5-31.7 1.5-47.5 3.2-11.6 1.5-23.6 2.8-34.5 7.1-3.4 1.4-7.3 3.9-5.7 6.5l-.7-.7c10.7 4.2 22.4 6.4 34 7.3 16 1.3 32.1-.1 47.8-3.7 2.9-.8 9.7-2.7 12.6-3.5l8.2-3c10.9-3.8 21.7-9.7 31.8-15.4 15.3-.3 23.3 19.1 27.7 31.1 1.6 4.5 2.8 9.1 4 13.7l-.7.2c-1.9-9-6.3-17.8-13.4-23.5-11.2-8.9-26.8-6.3-39-1-12.8 5.7-24.7 13.9-38.7 16.8-37.2 8.9-76.8-.2-110.4-16.9-7.8-14.7 76.2-21.1 86.6-22.4l-.2 2.9c-19.6-4.1-40.4-4.7-60.5-5.2-26.1-.2-52.4.6-78.4 2.6-45.6 2.9-95.2 10.6-140.5 15.1Zm2.6-.8c37.5-7.8 81.8-12.4 120-15.9 31.9-2.9 64.1-4.2 96.1-3.9 20.5.6 41 1.2 61.2 5.4l8.9 2c-29 3.4-59 4.7-86.9 13.9-2.3.9-4.9 2-6.6 3.8-.5.5-.3 1-.5.7 6.1 2.9 17.1 7.8 25.4 10.3 26.3 8.6 55.2 12.6 82.2 5.9 18.6-3.8 33.3-17.5 52.2-20.6 21.4-4.5 37.5 10.1 40.5 30.8l-.7.2c-1.4-4.5-2.7-9-4.5-13.4-4.4-10.9-12.3-28.6-25.8-28.9-5.3 3.2-16 8.9-23.3 12-4.5 2.2-11.9 4.6-16.6 6.4l-8.6 2.4c-28.6 7.5-59.7 7.8-87.8-2.6l-.4-.2c-.7-1.3-1.1-2.8-.6-4.4 5.5-14.7 74.4-16.1 90.5-17l-.2 2.7c-51.8-6.8-106.6-11.5-158.8-10.6-51.2 1-103.1 5.1-152 20.9l-2.3.9-1.2.4s.2-.1.2-.4c.1-.4-.1-.7-.4-.8ZM0 338.36v-4.28c3.74-1.66 6.48-5.48 8.21-11.47 1.31-4.51 1.96-13.31 1.96-26.4V191.86c0-7.83-.18-13.75-.53-17.76-.35-4.01-1.01-7.39-1.96-10.16-1.7-5.16-4.26-8.48-7.68-9.95v-4.28l.85.14 6.36 1.11c2.26.37 4.48.55 6.68.55 1.84 0 4.01-.21 6.52-.62 2.51-.41 4.41-.81 5.72-1.17l5.35-1.52c1.91-.55 3.88-.83 5.93-.83 3.64 0 6.93 1.11 9.88 3.32 2.95 2.21 5.46 5.37 7.55 9.47 2.08 4.1 3.69 9.03 4.82 14.79 1.13 5.76 1.7 12.14 1.7 19.14 0 10.87-1.32 20-3.95 27.37-2.63 7.37-6.46 12.71-11.47 16.03 4.17 1.11 7.84 4.01 11.02 8.71 3.18 4.7 5.62 10.85 7.34 18.45 1.71 7.6 2.57 16.15 2.57 25.64 0 7.74-.57 14.67-1.7 20.8-1.13 6.13-2.81 11.47-5.03 16.03-2.22 4.56-4.91 8-8.05 10.3-3.14 2.3-6.59 3.46-10.33 3.46-1.94 0-4.75-.41-8.42-1.24-5.37-1.11-9.04-1.8-11.02-2.07-3.21-.46-6.15-.69-8.79-.69-2.08 0-4.42.19-6.99.55l-5.46.83-1.06.14Zm7.47-7.33c2.79-.92 5.12-1.38 6.99-1.38 1.7 0 3.9.37 6.62 1.11l1.27.28-1.85-3.73c-1.2-2.3-1.97-4.15-2.3-5.53-.34-1.38-.5-3.46-.5-6.22V311c0-.83 0-1.38-.03-1.66a9.8 9.8 0 0 1-.03-.69V179.42c0-.28 0-.55.03-.83.02-.28.03-.78.03-1.52v-4.56c0-1.94.06-3.46.19-4.56.12-1.11.36-2.14.72-3.11.35-.97.99-2.33 1.91-4.08l2.81-5.53-1.91.42c-2.72.65-5.1.97-7.15.97-2.33 0-4.91-.51-7.73-1.52l2.81 5.67c1.24 2.4 2.01 4.26 2.33 5.6.32 1.34.48 3.39.48 6.15v143.05c0 2.76-.16 4.82-.48 6.15-.32 1.34-1.1 3.2-2.33 5.6l-1.85 3.73Zm14.83-94.54h8.58c5.09 0 8.97-2.67 11.65-8.02 1.84-3.5 3.3-8.27 4.4-14.3 1.09-6.03 1.64-12.37 1.64-19 0-8.02-.65-15.2-1.96-21.56-1.31-6.36-3.13-11.33-5.46-14.93-2.33-3.59-4.94-5.39-7.84-5.39-2.3 0-4.27 1.11-5.93 3.32-1.66 2.21-2.95 5.39-3.87 9.54-.81 4.15-1.22 10.73-1.22 19.76v50.58Zm0 5.39v58.19c0 11.98 1.05 20.43 3.15 25.36 2.1 4.93 5.68 7.39 10.73 7.39 5.76 0 10.14-4.29 13.14-12.85 2.97-8.48 4.45-19.03 4.45-31.65 0-5.34-.26-10.3-.77-14.86-.51-4.56-1.27-8.73-2.28-12.51-1.01-3.78-2.22-7.03-3.63-9.74-1.41-2.72-3.02-4.77-4.82-6.15-2.44-2.12-6.08-3.18-10.91-3.18H22.3Zm20.34-8.02c4.34-3.32 7.69-8.48 10.04-15.48 2.35-7 3.52-15.39 3.52-25.15s-1.18-18.13-3.55-24.81-5.86-11.49-10.49-14.44c5.62 10.32 8.42 23.82 8.42 40.5 0 17.69-2.65 30.82-7.95 39.39Zm2.44 99.51c3.32-1.38 6.23-4.03 8.74-7.95s4.44-8.87 5.8-14.86c1.36-5.99 2.04-12.62 2.04-19.9 0-10.41-1.32-19.67-3.97-27.78-2.65-8.11-6.36-14.24-11.12-18.38 6.15 10.41 9.22 25.06 9.22 43.95 0 21.56-3.57 36.54-10.7 44.92ZM112.47 153.99l3.07 46.02h-1.8c-.95-8.29-1.89-14.83-2.81-19.63-.92-4.79-1.94-8.8-3.07-12.02-1.8-5.25-3.96-9.35-6.49-12.3-2.53-2.95-5.17-4.42-7.92-4.42-3.89 0-7.06 2.74-9.54 8.22-2.47 5.48-3.71 12.56-3.71 21.21 0 9.49 1.61 17.37 4.82 23.63 1.66 3.13 3.43 5.92 5.32 8.36 1.89 2.44 4.85 5.87 8.87 10.3 2.75 2.86 5.09 5.44 6.99 7.74 1.91 2.3 3.44 4.38 4.61 6.22 1.17 1.84 2.33 3.96 3.5 6.36 4.91 10.32 7.36 23.82 7.36 40.5 0 10.97-1.15 20.87-3.44 29.72-2.3 8.84-5.48 15.78-9.54 20.8-4.06 5.02-8.56 7.53-13.51 7.53-3.43 0-7.38-1.34-11.87-4.01-2.65-1.66-6.13-4.61-10.44-8.85l-1.48-1.38-1.59-52.38h1.59c1.55 14.1 4.06 26.67 7.52 37.73 4.56 14.47 9.98 21.7 16.26 21.7 3.21 0 6.07-1.59 8.56-4.77 2.49-3.18 4.44-7.55 5.85-13.13 1.41-5.57 2.12-11.96 2.12-19.14 0-6.36-.55-12.09-1.64-17.21a53.96 53.96 0 0 0-5.35-14.51c-2.47-4.56-5.86-9.24-10.17-14.03-6.25-7.09-10.05-11.61-11.39-13.54-2.58-3.78-4.71-7.88-6.41-12.3-1.69-4.42-2.95-9.21-3.76-14.37-.81-5.16-1.22-10.69-1.22-16.59 0-9.12.93-17.46 2.78-25.02 1.85-7.55 4.4-13.5 7.63-17.83 3.23-4.33 6.81-6.5 10.73-6.5 2.47 0 5.23 1.06 8.26 3.18l3.18 2.21c2.37 1.66 4.89 2.49 7.58 2.49h.53ZM73.11 321.36c2.33 3.5 5.3 6.87 8.9 10.09-2.37-5.53-4.16-10.09-5.38-13.68-1.22-3.59-2.6-8.66-4.16-15.2l.64 18.8Zm35.33 5.39c5.83-10.96 8.74-24.14 8.74-39.53 0-6.08-.49-12-1.46-17.76-.97-5.76-2.36-10.66-4.16-14.72-2.61-6.17-7.22-12.85-13.83-20.04-5.47-6.08-9.03-10.18-10.67-12.3-1.64-2.12-3.31-4.98-5.01-8.57-3.53-7.37-5.3-16.68-5.3-27.92 0-3.32.14-6.33.42-9.05.28-2.72.71-5.34 1.27-7.88.56-2.53 1.5-5.92 2.81-10.16-5.05 9.49-7.58 21.33-7.58 35.52s2.05 24.42 6.15 32.34c2.15 4.24 4.63 8.02 7.42 11.33.35.46 3.07 3.59 8.16 9.4 6.15 6.91 10.38 13.18 12.71 18.8 3.71 8.94 5.56 19.49 5.56 31.65 0 5.9-.42 11.12-1.25 15.69-.83 4.56-2.16 8.96-4 13.2ZM185.52 149.7l2.07 51.41h-1.64c-1.31-10.78-2.95-19.53-4.93-26.26-1.98-6.72-4.4-11.72-7.26-15-2.86-3.27-6.25-4.91-10.17-4.91h-1.48c-4.63 0-7.9 2.24-9.83 6.7-1.93 4.47-2.89 12.28-2.89 23.43v46.99h5.24c5.33 0 9.22-2.19 11.65-6.57 2.44-4.38 4.11-12.28 5.03-23.7h1.59v73.67h-1.59c-.71-10.41-1.66-18.27-2.86-23.56-1.2-5.3-2.85-9.03-4.95-11.2-2.1-2.16-5.08-3.25-8.93-3.25h-5.19v58.74c0 8.2.21 14.21.64 18.04.42 3.83 1.24 7.17 2.44 10.02 2.12 4.97 5.28 8.25 9.48 9.81v4.28h-35.18v-4.28c3.81-1.66 6.59-5.48 8.32-11.47 1.34-4.42 2.01-13.22 2.01-26.4V191.84c0-8.38-.18-14.46-.53-18.24-.35-3.78-1.01-7-1.96-9.67-1.77-5.16-4.38-8.48-7.84-9.95v-4.28h58.75Zm-51.33 181.61h15.47l-2.07-4.01c-1.2-2.3-1.97-4.15-2.3-5.53-.34-1.38-.5-3.46-.5-6.22 0-1.47 0-2.46-.03-2.97-.02-.5-.03-1.04-.03-1.59V177.07c0-.55 0-1.11.03-1.66.02-.55.03-1.52.03-2.9 0-2.76.19-4.91.56-6.43.37-1.52 1.12-3.29 2.25-5.32l3.02-5.8h-17.38l3.02 5.8c1.24 2.3 2.01 4.1 2.33 5.39.32 1.29.48 3.41.48 6.36.03 1.57.05 3.09.05 4.56v133.92c0 1.48-.02 3-.05 4.56 0 2.86-.16 4.95-.48 6.29-.32 1.34-1.09 3.16-2.33 5.46l-2.07 4.01Zm34.75-105.18c-.81 2.12-1.58 3.73-2.3 4.84-.72 1.11-1.86 2.44-3.42 4.01 2.01 1.57 3.92 4.56 5.72 8.98v-17.83Zm12.66-71.32h-7.58c2.05 2.3 3.67 4.7 4.87 7.19 1.2 2.49 2.49 6.22 3.87 11.19l-1.17-18.38ZM237.6 268.56h-27.28l-2.97 17.69c-1.41 8.66-2.12 15.8-2.12 21.42 0 4.79.41 8.91 1.24 12.37.83 3.46 2.07 6.31 3.71 8.57s3.81 4.08 6.49 5.46v4.28h-27.49v-4.15c3.32-2.95 6.17-8.11 8.56-15.48 2.38-7.37 4.9-18.84 7.55-34.41l23.42-138.21h1.38l25.48 149.4c.07.09.13.35.19.76s.12.85.21 1.31c.09.46.19.97.29 1.52l2.33 12.58c1.27 6.73 2.72 11.8 4.34 15.2 1.62 3.41 3.66 5.8 6.09 7.19v4.28h-33.8v-4.28c2.86-.55 4.91-1.43 6.15-2.63 2.54-2.49 3.81-6.82 3.81-12.99 0-3.04-.56-8.02-1.69-14.93l-5.88-34.97Zm-31.2 62.75c-1.2-3.78-2.05-7.16-2.54-10.16-.5-2.99-.74-6.24-.74-9.74 0-1.57.02-2.81.05-3.73-1.09 5.53-2.17 9.97-3.23 13.34s-2.49 6.79-4.29 10.3h10.75Zm30.2-68.55-12.77-75.05-12.56 75.05h25.32Zm-11.65-80.99 20.4 119.83.53 3.04c1.09 6.17 1.64 10.69 1.64 13.54 0 3.96-.87 8.34-2.6 13.13h13.99c-1.59-3.87-2.97-8.31-4.13-13.34-1.17-5.02-2.52-12-4.08-20.94l-22.73-133.37-3.02 18.11ZM305.94 149.7v4.28c-4.1 1.66-7.06 5.44-8.9 11.33-.85 2.86-1.42 6.22-1.72 10.09-.3 3.87-.45 9.35-.45 16.45v81.13c.04 18.24 1.78 32.39 5.25 42.43 1.87 5.44 4.25 9.7 7.15 12.78 2.9 3.09 5.92 4.63 9.06 4.63 4.59 0 8.56-2.99 11.89-8.98 3.34-5.99 5.85-14.42 7.55-25.29 1.34-8.66 2.01-20.64 2.01-35.94v-64.27c0-15.66-1.38-26.9-4.13-33.72-2.3-5.71-5.17-9.26-8.63-10.64v-4.28h24.63v4.28c-2.37 1.66-4.26 4.15-5.7 7.46-1.43 3.32-2.46 7.69-3.1 13.13-.64 5.44-.95 12.26-.95 20.46v67.45c0 11.24-.26 20.27-.79 27.09s-1.4 13.04-2.6 18.66c-1.59 7.37-3.63 13.64-6.12 18.8s-5.36 9.08-8.61 11.75c-3.25 2.67-6.75 4.01-10.49 4.01-3.99 0-7.66-1.5-10.99-4.49-3.34-2.99-6.26-7.32-8.77-12.99s-4.5-12.51-5.99-20.52c-1.98-10.78-2.97-26.26-2.97-46.44v-66.48c0-7.92-.17-13.84-.5-17.76-.34-3.92-1-7.3-1.99-10.16-1.77-5.16-4.38-8.48-7.84-9.95v-4.28h33.69Zm-27.44 5.25 3.23 5.8c1.09 1.84 1.84 3.57 2.22 5.18.39 1.61.58 3.8.58 6.56 0 2.58.02 4.1.05 4.56v79.61c0 6.54.21 14.51.64 23.91.81 17.88 3.5 31.97 8.08 42.29 4.57 10.32 10.41 15.52 17.51 15.62-7.17-3.96-12.56-12.25-16.16-24.88-1.66-5.71-2.82-12.28-3.47-19.7-.65-7.42-.98-17.11-.98-29.09v-92.32c.03-2.76.24-4.93.61-6.5.37-1.57 1.12-3.32 2.25-5.25l3.23-5.8h-17.8Zm62.93 0h-9.32c1.38 2.03 2.48 4.15 3.31 6.36s1.6 5.16 2.3 8.85c.95-5.99 2.19-11.06 3.71-15.2ZM423.28 149.7l1.64 51.41h-1.7c-1.06-9.49-2.5-17.69-4.32-24.6-1.82-6.91-3.94-12.23-6.36-15.96-2.42-3.73-4.95-5.6-7.6-5.6-2.08 0-3.89 1.13-5.43 3.39-1.54 2.26-2.68 5.37-3.42 9.33-.71 3.78-1.06 9.86-1.06 18.24V296.2c0 8.2.21 14.21.64 18.04.42 3.83 1.24 7.17 2.44 10.02 2.15 5.07 5.3 8.34 9.43 9.81v4.28h-37.35v-4.28c4.59-1.66 7.95-5.44 10.07-11.33.95-2.67 1.61-5.94 1.96-9.81.35-3.87.53-9.44.53-16.72V185.92c0-9.12-.48-15.76-1.43-19.9-.74-3.41-1.85-6.1-3.34-8.09-1.48-1.98-3.2-2.97-5.14-2.97-3.99 0-7.64 4.12-10.94 12.37s-5.77 19.51-7.39 33.79h-1.64l1.64-51.41h68.76Zm-67.01 5.11-.74 20.32c1.52-5.8 2.81-10.04 3.87-12.72a36.67 36.67 0 0 1 4.13-7.6h-7.26Zm23.52 176.49h15.52l-2.07-4.01c-1.27-2.49-2.07-4.38-2.38-5.67-.32-1.29-.48-3.32-.48-6.08v-4.56c0-.74 0-1.24-.03-1.52-.02-.28-.03-.55-.03-.83V179.4c0-.28 0-.55.03-.83.02-.28.03-.78.03-1.52v-4.56c0-2.76.19-4.91.58-6.43.39-1.52 1.15-3.29 2.28-5.32l3.02-5.8h-16.32l2.49 5.8c.88 2.03 1.48 3.89 1.8 5.6.32 1.71.48 3.76.48 6.15v4.56c.03.83.05 1.61.05 2.35v129.23c0 .74-.02 1.52-.05 2.35v4.56c0 2.76-.17 4.84-.5 6.22-.34 1.38-1.1 3.23-2.3 5.53l-2.12 4.01Zm39.47-176.49h-7.68c1.87 2.03 3.44 4.35 4.71 6.98s2.6 6.43 3.97 11.4l-1.01-18.38ZM429.53 244.24c0-13.36.99-26.12 2.97-38.29 1.98-12.16 4.72-22.83 8.24-32 3.51-9.17 7.58-16.26 12.18-21.28 4.61-5.02 9.47-7.53 14.6-7.53 6.85 0 13.18 4.45 18.99 13.34 5.81 8.89 10.42 20.94 13.83 36.14s5.11 31.74 5.11 49.62c0 13.27-.96 25.91-2.89 37.94-1.93 12.02-4.65 22.64-8.18 31.86-3.53 9.21-7.58 16.38-12.13 21.49-4.56 5.11-9.41 7.67-14.57 7.67-6.96 0-13.36-4.42-19.2-13.27-5.85-8.85-10.46-20.85-13.85-36-3.39-15.16-5.09-31.72-5.09-49.69Zm21.99 85c-3.14-6.08-5.75-13.24-7.81-21.49-2.07-8.25-3.62-17.81-4.66-28.68-1.04-10.87-1.56-22.8-1.56-35.8 0-19.16 1.12-35.5 3.36-48.99 2.24-13.5 5.8-25.04 10.67-34.62-4.2 5.8-7.8 12.99-10.78 21.56-2.99 8.57-5.26 18.17-6.83 28.82-1.57 10.64-2.36 22-2.36 34.07s.79 23.34 2.36 34.07c1.57 10.74 3.85 20.43 6.83 29.09s6.58 15.99 10.78 21.97Zm-8.63-85.97c0 13.54.58 26.1 1.75 37.66 1.17 11.56 2.83 21.42 5.01 29.58s4.79 14.4 7.84 18.73 6.44 6.5 10.14 6.5c6.04 0 11.32-6.26 15.84-18.8 2.75-7.74 4.88-17.9 6.38-30.47 1.5-12.58 2.25-27.02 2.25-43.33 0-14.19-.57-27-1.72-38.42-1.15-11.42-2.79-21.15-4.93-29.16s-4.71-14.19-7.73-18.52c-3.02-4.33-6.42-6.5-10.2-6.5s-7.13 2.19-10.15 6.56c-3.02 4.38-5.61 10.64-7.76 18.8-2.15 8.15-3.81 18.01-4.98 29.58-1.17 11.56-1.75 24.17-1.75 37.8Zm37.72 86.11c12.93-19.44 19.39-47.82 19.39-85.14 0-11.98-.71-23.43-2.15-34.35s-3.46-20.64-6.09-29.16-5.71-15.32-9.25-20.39c7.74 17.69 11.6 45.24 11.6 82.65 0 10.97-.38 21.45-1.14 31.44-.76 10-1.81 18.73-3.15 26.19-.67 3.78-1.4 7.14-2.17 10.09-.78 2.95-1.73 5.92-2.86 8.91-1.13 3-2.53 6.24-4.18 9.74ZM62.29 92.42l-37.6-2.2c-3.3-.2-6.4-2-7.9-5-2-3.7-2.7-9.2 4-14.7 3.2-2.6 7.1-4.2 11.2-4.8 7.9-1.2 22.8-2.1 24.2 6.2 1.5 9.3-1.6 13-2.8 14.1-.2.2-.5.1-.5-.2-.3-2.9-2.3-15.6-12.1-14.9-8 .5-13.3 3.2-15.3 4.4-.7.4-1.2 1.2-1.2 2-.2 2.3 1.2 6.8 14.5 6.6.7 0 1.5.2 2.1.7l14.5 11.4c1 .8 2.4.7 3.3-.1l3.6-3.5Z" />
    </symbol>
    <symbol id="buySteps_1" viewBox="0 0 32 32">
        <path
            d="m31.008 27.231-7.58-6.447c-.784-.705-1.622-1.029-2.299-.998a11.954 11.954 0 0 0 2.87-7.787c0-6.627-5.373-12-12-12s-12 5.373-12 12 5.373 12 12 12c2.972 0 5.691-1.081 7.787-2.87-.031.677.293 1.515.998 2.299l6.447 7.58c1.104 1.226 2.907 1.33 4.007.23s.997-2.903-.23-4.007zM12 20a8 8 0 1 1 0-16 8 8 0 0 1 0 16z" />
    </symbol>
    <symbol id="buySteps_3" viewBox="0 0 53 39">
        <path
            d="M42.452.661c-1.535 1.424-3.422 2.96-5.255 3.35-3.402.723-7.061-.943-9.872-.497-.182.03-.359.064-.533.095-.48-.13-.986-.238-1.52-.323a7.403 7.403 0 0 0-1.157-.086c-1.106.003-2.214.195-3.31.37-1.097.178-2.18.345-3.202.345a7.33 7.33 0 0 1-1.557-.153c-.677-.141-1.412-.497-2.15-.995-.74-.494-1.478-1.128-2.178-1.775a3.425 3.425 0 0 0-1.07-.686A3.201 3.201 0 0 0 9.46.084c-.63 0-1.236.17-1.808.435a7.475 7.475 0 0 0-1.453.913c-.819.64-1.596 1.452-2.317 2.36a21.669 21.669 0 0 0-2.726 4.51c-.348.782-.634 1.56-.835 2.311C.121 11.365 0 12.09 0 12.788c0 .367.033.729.118 1.08.085.356.223.703.43 1.018a.983.983 0 0 0 .22.243c.013.012.456.381.937.862.241.243.49.513.698.772.206.251.367.502.427.643.272.604.966 2.077 1.886 3.725.462.823.98 1.69 1.537 2.518.282.416.574.825.873 1.211-.815 1.058-.81 2.61.081 3.66.994 1.176 2.707 1.283 3.828.242l.078-.072c-.483 1.008-.366 2.264.392 3.16.993 1.173 2.707 1.281 3.83.24l.44-.42c-.602 1.036-.522 2.405.286 3.36.995 1.171 2.709 1.28 3.83.242l.679-.643c-.64 1.044-.572 2.442.25 3.415.993 1.173 2.708 1.282 3.83.241l1.097-.986c.103.053.204.1.297.145l.75.458-.007-.005c.375.233.763.423 1.166.555.403.133.821.21 1.247.21.46 0 .93-.093 1.372-.298.44-.203.844-.518 1.18-.916.402-.474.668-1.03.804-1.608a3.483 3.483 0 0 0 2.7-.095 3.639 3.639 0 0 0 1.254-.959A3.854 3.854 0 0 0 37.354 33a3.47 3.47 0 0 0 2.185-.245 3.632 3.632 0 0 0 1.255-.958 3.856 3.856 0 0 0 .87-1.97c.106.01.21.013.313.013.6 0 1.189-.136 1.735-.377a4.105 4.105 0 0 0 1.457-1.076c.379-.45.665-.973.87-1.538.204-.566.323-1.17.325-1.79a4.23 4.23 0 0 0-.055-.68c2.09-2.434 3.195-6.488 3.675-7.552.552-1.23 2.637-2.975 2.637-2.975 2.25-3.398-6.086-16.978-10.169-13.19Zm1.558 25.385c-.119.33-.292.634-.463.833-.156.187-.4.368-.684.495a2.26 2.26 0 0 1-.886.195c-.186 0-.357-.03-.495-.079-.009-.004-.017-.006-.023-.01l-3.095-3.125a1.052 1.052 0 0 0-1.534.029 1.173 1.173 0 0 0 .027 1.605l2.495 2.522c.01.025.017.05.029.075.102.213.156.453.156.69a1.54 1.54 0 0 1-.873 1.4 1.4 1.4 0 0 1-1.56-.255l-.063-.06c-.014-.013-.02-.029-.034-.044l-2.713-2.964a1.048 1.048 0 0 0-1.531-.037 1.176 1.176 0 0 0-.036 1.607l2.301 2.515.013.027c.142.242.213.52.213.8-.001.366-.12.72-.369 1.015h.001a1.52 1.52 0 0 1-.504.387 1.43 1.43 0 0 1-1.563-.256l-.042-.036-.838-.706-1.375-1.527a1.052 1.052 0 0 0-1.534-.046 1.174 1.174 0 0 0-.045 1.606l1.305 1.448c.134.238.206.507.206.78-.003.363-.12.719-.368 1.01-.15.178-.29.28-.438.349a1.164 1.164 0 0 1-.49.103c-.175 0-.374-.032-.595-.105a3.419 3.419 0 0 1-.709-.34l-.006-.006-.384-.232c1.06-1.048 1.144-2.795.17-3.946-.98-1.156-2.663-1.274-3.783-.279l.202-.19c1.123-1.04 1.225-2.835.231-4.008a2.628 2.628 0 0 0-3.828-.242l-.665.627c.643-1.04.575-2.442-.25-3.415-.994-1.173-2.706-1.282-3.828-.241l-.883.84c.414-.982.277-2.171-.45-3.028-.993-1.174-2.708-1.282-3.828-.242l-1.867 1.734a20.624 20.624 0 0 1-.702-.98c-.764-1.137-1.483-2.405-2.052-3.492a47.077 47.077 0 0 1-1.18-2.41 4.383 4.383 0 0 0-.34-.608 8.217 8.217 0 0 0-.729-.928 14.456 14.456 0 0 0-1.086-1.09 14.05 14.05 0 0 0-.362-.323c-.019-.045-.037-.1-.054-.17a2.356 2.356 0 0 1-.054-.53c0-.359.06-.815.183-1.33.215-.897.624-1.957 1.162-3.013.806-1.591 1.907-3.186 3.03-4.33.561-.576 1.125-1.035 1.636-1.334.255-.148.496-.258.711-.326.215-.07.406-.1.57-.1.158 0 .291.026.422.075.127.054.256.13.397.26.743.691 1.558 1.394 2.446 1.99.884.592 1.842 1.085 2.889 1.31a9.496 9.496 0 0 0 1.988.195c1.238-.001 2.43-.192 3.534-.37.278-.046.55-.089.815-.131-.828.597-1.63 1.306-2.482 2.138-2.432 2.375-4.529 5.276-5.692 6.594-1.162 1.317 1 3.602 4.442 2.554 3.44-1.046 4.923-3.733 4.923-3.733l4.32-1.623 4.288 1.027 10.364 9.769 1.792 1.813.035.031a.7.7 0 0 1 .175.283c.046.131.078.309.078.522.001.298-.063.656-.184.987Z" />
    </symbol>
    <symbol id="buySteps_4" viewBox="0 0 258.103 258.103">
        <path
            d="M248.904 71.976c-.974 0-1.972.14-2.969.414l-11.278 3.106-11.713-28.531c-3.317-8.082-13.125-14.657-21.862-14.657H91.474c-8.736 0-18.545 6.575-21.863 14.657L57.915 75.457 46.777 72.39a11.217 11.217 0 0 0-2.969-.414c-5.33 0-9.198 4.072-9.198 9.683v6.649c0 .272.022.539.041.808a74.54 74.54 0 0 0-12.977 10.351C7.698 113.442 0 132.026 0 151.793c0 19.768 7.698 38.351 21.675 52.326 13.978 13.977 32.561 21.676 52.327 21.676s38.35-7.698 52.327-21.676c8.147-8.146 14.142-17.865 17.742-28.465h68.937v14.154c0 6.549 5.328 11.877 11.877 11.877h15.511c6.549 0 11.877-5.328 11.877-11.877v-56.68c0-8.118-2.507-20.831-5.59-28.34l-1.891-4.604h1.434c6.549 0 11.877-5.328 11.877-11.877v-6.649c0-5.61-3.869-9.682-9.199-9.682zM84.147 50.58c1.984-4.835 7.885-8.79 13.11-8.79h98.041c5.226 0 11.126 3.955 13.11 8.79l17.717 43.154c1.984 4.835-.668 8.79-5.894 8.79h-91.024a76.685 76.685 0 0 0-2.879-3.059C112.349 85.487 93.766 77.79 74.001 77.79c-.347 0-.689.02-1.035.025L84.147 50.58zM74.002 203.646c-13.85 0-26.871-5.395-36.665-15.189-9.794-9.793-15.187-22.813-15.187-36.664s5.394-26.871 15.187-36.665c9.794-9.793 22.815-15.187 36.665-15.187s26.871 5.394 36.665 15.187c9.793 9.794 15.187 22.814 15.187 36.665s-5.393 26.871-15.187 36.664c-9.795 9.794-22.815 15.189-36.665 15.189zm155.411-55.328a4.765 4.765 0 0 1-4.751 4.751h-33.653a4.765 4.765 0 0 1-4.751-4.751v-16.152a4.765 4.765 0 0 1 4.751-4.751h33.653a4.765 4.765 0 0 1 4.751 4.751v16.152z" />
        <path
            d="M108.154 121.659c-4.234-3.108-10.187-2.198-13.297 2.037L67.7 160.676l-16.626-12.093c-4.247-3.091-10.197-2.152-13.287 2.098a9.511 9.511 0 0 0 2.098 13.287l22.229 16.167a11.987 11.987 0 0 0 7.078 2.303c3.714 0 7.383-1.704 9.739-4.914l31.261-42.567c3.109-4.234 2.197-10.188-2.038-13.298z" />
    </symbol>
    <symbol id="buySteps_5" viewBox="0 0 32 28">
        <path
            d="M28.297 24.297c0.391-0.391 1.016-0.391 1.406 0l2 2-1.406 1.406-1.297-1.297-1.297 1.297c-0.187 0.203-0.453 0.297-0.703 0.297s-0.516-0.094-0.703-0.297l-1.297-1.297-1.297 1.297c-0.391 0.391-1.016 0.391-1.406 0l-1.297-1.297-1.297 1.297c-0.391 0.391-1.016 0.391-1.406 0l-1.297-1.297-1.297 1.297c-0.391 0.391-1.016 0.391-1.406 0l-1.297-1.297-1.297 1.297c-0.391 0.391-1.016 0.391-1.406 0l-1.297-1.297-1.297 1.297c-0.391 0.391-1.016 0.391-1.406 0l-1.297-1.297-1.297 1.297c-0.391 0.391-1.016 0.391-1.406 0l-2-2 1.406-1.406 1.297 1.297 1.297-1.297c0.391-0.391 1.016-0.391 1.406 0l1.297 1.297 1.297-1.297c0.391-0.391 1.016-0.391 1.406 0l1.297 1.297 1.297-1.297c0.391-0.391 1.016-0.391 1.406 0l1.297 1.297 1.297-1.297c0.391-0.391 1.016-0.391 1.406 0l1.297 1.297 1.297-1.297c0.391-0.391 1.016-0.391 1.406 0l1.297 1.297 1.297-1.297c0.391-0.391 1.016-0.391 1.406 0l1.297 1.297zM3.703 23.703c-0.391 0.391-1.016 0.391-1.406 0l-2-2 1.406-1.406 1.297 1.281 1.297-1.281c0.391-0.391 1.016-0.391 1.406 0l1.297 1.281 1-1v-4.578l-3.281-4.906c-0.359-0.547-0.109-1.297 0.516-1.516l2.766-0.906v-4.672h2v-2h4v-2h4v2h4v2h2v4.672l2.766 0.906c0.625 0.219 0.875 0.969 0.516 1.516l-3.281 4.906v4.578l0.297-0.281c0.391-0.391 1.016-0.391 1.406 0l1.297 1.281 1.297-1.281c0.391-0.391 1.016-0.391 1.406 0l2 2-1.406 1.406-1.297-1.297-1.297 1.297c-0.187 0.203-0.453 0.297-0.703 0.297s-0.516-0.094-0.703-0.297l-1.297-1.297-1.297 1.297c-0.391 0.391-1.016 0.391-1.406 0l-1.297-1.297-1.297 1.297c-0.391 0.391-1.016 0.391-1.406 0l-1.297-1.297-1.297 1.297c-0.391 0.391-1.016 0.391-1.406 0l-1.297-1.297-1.297 1.297c-0.391 0.391-1.016 0.391-1.406 0l-1.297-1.297-1.297 1.297c-0.391 0.391-1.016 0.391-1.406 0l-1.297-1.297zM10 6v2l6-2 6 2v-2h-2v-2h-8v2h-2z">
        </path>
    </symbol>
    <symbol id="buySteps_6" viewBox="0 0 46 46">
        <path
            d="M34.79 23.72H11.07a.79.79 0 0 0-.791.791c0 7.851 5.677 14.232 12.65 14.232 6.975 0 12.652-6.38 12.652-14.232a.79.79 0 0 0-.791-.79Zm-22.93 1.582H34a14.237 14.237 0 0 1-.53 3.162H12.421a14.23 14.23 0 0 1-.562-3.162Zm6.84 10.911a5.082 5.082 0 0 1 8.389 0 9.749 9.749 0 0 1-8.39 0Zm9.765-.79a6.966 6.966 0 0 0-5.535-3.005 6.967 6.967 0 0 0-5.535 3.012 12.303 12.303 0 0 1-4.404-5.384h19.877a12.303 12.303 0 0 1-4.404 5.384v-.008ZM22.93 0a22.93 22.93 0 1 0 0 45.86 22.93 22.93 0 0 0 0-45.86Zm0 44.278a21.348 21.348 0 1 1 0-42.696 21.348 21.348 0 0 1 0 42.696Zm3.162-29.255a.867.867 0 0 1 0-.142.93.93 0 0 1 .048-.159v-.055a.22.22 0 0 1 .055-.071.562.562 0 0 1 .222-.222s.047-.047.07-.055l7.908-3.953a.79.79 0 1 1 .711 1.407l-6.452 3.25 6.492 3.25a.79.79 0 0 1-.356 1.494.736.736 0 0 1-.356-.087l-7.907-3.953a.933.933 0 0 1-.221-.174v-.048a.519.519 0 0 1-.08-.118v-.056a.926.926 0 0 1-.047-.158.867.867 0 0 1-.087-.15Zm-15.378 3.25 6.491-3.25-6.491-3.25a.79.79 0 0 1-.2-1.339.79.79 0 0 1 .911-.068l7.907 3.953s.048.04.071.055c.094.052.17.129.222.222.023.02.042.044.055.071v.055a.93.93 0 0 1 .047.159.65.65 0 0 1 0 .284.93.93 0 0 1-.047.158v.056a.512.512 0 0 1-.08.118.172.172 0 0 0 0 .048.935.935 0 0 1-.22.174l-7.907 3.953a.736.736 0 0 1-.404.095.79.79 0 0 1-.355-1.494Z" />
    </symbol>
    <symbol id="dropdownIndicator" viewBox="0 0 24 24">
        <path fillRule="evenodd" clipRule="evenodd"
            d="M5.94451 9.20954C6.16016 8.95794 6.53894 8.9288 6.79053 9.14446L12.0001 13.6098L17.2096 9.14446C17.4612 8.9288 17.84 8.95794 18.0556 9.20954C18.2713 9.46113 18.2421 9.83991 17.9905 10.0556L12.3905 14.8556C12.1658 15.0482 11.8343 15.0482 11.6096 14.8556L6.00958 10.0556C5.75799 9.83991 5.72885 9.46113 5.94451 9.20954Z" />
    </symbol>
    <symbol id="carCard_1" viewBox="0 0 13 9">
        <path stroke="black" stroke-linecap="round" stroke-linejoin="round"
            d="m.626 2.7 1.786 1.146a.784.784 0 0 0 .42.117h7.4a.784.784 0 0 0 .42-.117L12.44 2.7M2.923 5.73h.007m7.212 0h.007M4.013.932h5.04c.47 0 .905.195 1.139.51L12.093 4c.227.306.346.652.346 1.004v3c0 .278-.294.505-.656.505h-.656c-.363 0-.657-.227-.657-.506V7.5H2.595v.505c0 .28-.294.506-.656.506h-.657c-.362 0-.656-.227-.656-.506v-3c0-.351.12-.697.346-1.002L2.873 1.44c.234-.315.669-.51 1.14-.51Zm-.762 4.8c0 .14-.147.253-.328.253-.181 0-.328-.114-.328-.253 0-.14.147-.253.328-.253.181 0 .328.113.328.253Zm7.22 0c0 .14-.148.253-.329.253-.181 0-.328-.114-.328-.253 0-.14.147-.253.328-.253.181 0 .328.113.328.253Z" />
    </symbol>
    <symbol id="carCard_2" viewBox="0 0 13 14" fill="none">
        <path
            d="M5.8998 3.26172H4.21221C3.68186 3.26172 3.41668 3.26172 3.25192 3.44192C3.08716 3.62213 3.08716 3.91217 3.08716 4.49225C3.08716 5.07233 3.08716 5.36236 3.25192 5.54257C3.41668 5.72278 3.68186 5.72278 4.21221 5.72278H5.8998C6.43015 5.72278 6.69532 5.72278 6.86009 5.54257C7.02485 5.36236 7.02485 5.07233 7.02485 4.49225C7.02485 3.91217 7.02485 3.62213 6.86009 3.44192C6.69532 3.26172 6.43015 3.26172 5.8998 3.26172Z"
            stroke="black" />
        <path d="M3.57935 9.6604H6.53262" stroke="black" stroke-linecap="round" />
        <path d="M9.48591 12.6138H0.626099" stroke="black" stroke-linecap="round" />
        <path
            d="M11.0036 1.78503L11.7117 2.39197C11.7909 2.45981 11.8304 2.49373 11.8664 2.5283C12.2059 2.85441 12.411 3.31142 12.4366 3.79919C12.4393 3.8509 12.4393 3.9052 12.4393 4.01379V10.7064C12.4393 11.2161 12.0536 11.6293 11.5779 11.6293C11.1022 11.6293 10.7165 11.2161 10.7165 10.7064V10.6624C10.7165 10.177 10.3492 9.78348 9.89615 9.78348H8.99377"
            stroke="black" stroke-linecap="round" />
        <path
            d="M12.4393 4.24609H11.4549C10.9112 4.24609 10.4705 4.63174 10.4705 5.10746V6.49651C10.4705 6.86724 10.7416 7.1964 11.1436 7.31366L12.4393 7.69158"
            stroke="black" stroke-linecap="round" />
        <path
            d="M8.99368 12.6137V8.47916M1.11829 12.6137V10.2511M1.11829 7.88851V4.34458C1.11829 2.67396 1.11829 1.83865 1.65059 1.31966C2.18289 0.800659 3.03962 0.800659 4.75308 0.800659H5.35888C7.07232 0.800659 7.92904 0.800659 8.46136 1.31966C8.99368 1.83865 8.99368 2.67396 8.99368 4.34458V6.11655"
            stroke="black" stroke-linecap="round" />
    </symbol>
    <symbol id="carCard_3" viewBox="0 0 13 15">
        <path stroke='black'
            d="M12.44 13.832c0 .236-.172.429-.382.429H1.008c-.21 0-.382-.193-.382-.429l1.905-12.23c0-.235.172-.428.381-.428h7.24c.21 0 .382.193.382.429l1.905 12.23ZM6.533 3.36V2.052M6.533 6.315V4.837M6.533 9.549V7.835M6.533 13.425v-2.377" />
    </symbol>
    <symbol id="carCard_4" viewBox="0 0 13 14">
        <mask id="a" width="13" height="14" x="0" y="0" maskUnits="userSpaceOnUse" style="mask-type:luminance">
            <path stroke='black' d="M12.648.159H.835v13.088h11.813V.159Z" />
        </mask>
        <g mask="url(#a)">
            <path stroke="#292929" stroke-linejoin="round"
                d="M2.804 6.703 7.398.159V4.52h3.281l-4.594 6.544V6.703H2.804Z" />
        </g>
    </symbol>
    <symbol id="carCard_5" viewBox="0 0 50 50">
        <path fill="none" stroke="#000" stroke-linejoin="round" stroke-miterlimit="10" stroke-width="2"
            d="M30 14v-4h5V6H21v4h5v4M9 27H5v-6H1v16h4v-6h4" />
        <path fill="none" stroke="#000" stroke-linecap="round" stroke-linejoin="round" stroke-miterlimit="10"
            stroke-width="2.008"
            d="M45 20v5h-3v-8.157C42 15.826 41.189 15 40.191 15H19.99c-.479 0-.941.195-1.28.542L14 21h-3c-1 0-2 1-2 2v12c0 1.018 1.002 2 2 2h3l4.712 5.461c.339.345.799.539 1.278.539h12.855c.479 0 .939-.194 1.278-.539l7.346-7.482c.341-.346.53-.814.53-1.303V31h3v5h4V20H45z" />
        <path d="m32 28-8 11 3-9h-5l5-10h5l-5 8z" />
    </symbol>
    <symbol id="carCard_6" viewBox="0 0 20 20">
        <path stroke='black'
            d="M1 4c0-1.1.9-2 2-2h14a2 2 0 0 1 2 2v14a2 2 0 0 1-2 2H3a2 2 0 0 1-2-2V4zm2 2v12h14V6H3zm2-6h2v2H5V0zm8 0h2v2h-2V0zM5 9h2v2H5V9zm0 4h2v2H5v-2zm4-4h2v2H9V9zm0 4h2v2H9v-2zm4-4h2v2h-2V9zm0 4h2v2h-2v-2z" />
    </symbol>
    <symbol id="whatsapp" viewBox="0 0 25 25">
        <path
            d="M22.188 12.092c0 5.38-4.396 9.742-9.819 9.742a9.835 9.835 0 0 1-4.746-1.212l-5.436 1.727 1.773-5.227a9.64 9.64 0 0 1-1.41-5.03c0-5.381 4.397-9.743 9.82-9.743s9.818 4.362 9.818 9.743ZM12.368 3.9c-4.552 0-8.254 3.674-8.254 8.19 0 1.793.584 3.453 1.572 4.803l-1.031 3.042 3.172-1.008a8.25 8.25 0 0 0 4.542 1.355c4.55 0 8.254-3.674 8.254-8.19 0-4.517-3.703-8.192-8.255-8.192Zm4.958 10.434c-.06-.099-.22-.159-.461-.278-.24-.12-1.425-.697-1.644-.777-.221-.08-.382-.12-.542.12-.16.239-.622.776-.762.935-.14.16-.281.18-.522.06-.24-.119-1.016-.371-1.935-1.184-.716-.633-1.199-1.415-1.34-1.654-.14-.239-.014-.368.106-.487.109-.107.241-.279.362-.418.12-.14.16-.239.24-.398.08-.16.04-.3-.02-.419-.06-.12-.542-1.294-.742-1.773-.2-.477-.4-.398-.542-.398-.14 0-.3-.02-.46-.02-.161 0-.422.06-.643.299-.22.239-.842.817-.842 1.992s.862 2.31.983 2.47c.12.158 1.664 2.648 4.11 3.604 2.448.956 2.448.637 2.89.597.44-.04 1.423-.577 1.624-1.135.2-.558.2-1.036.14-1.136Z" />
    </symbol>
    <symbol id="telegram" viewBox="0 0 28 28">
        <path
            d="m18.578 20.422 2.297-10.828c.203-.953-.344-1.328-.969-1.094l-13.5 5.203c-.922.359-.906.875-.156 1.109l3.453 1.078 8.016-5.047c.375-.25.719-.109.438.141l-6.484 5.859-.25 3.563c.359 0 .516-.156.703-.344l1.687-1.625 3.5 2.578c.641.359 1.094.172 1.266-.594zM28 14c0 7.734-6.266 14-14 14S0 21.734 0 14 6.266 0 14 0s14 6.266 14 14z" />
    </symbol>
    <symbol id="instagram" viewBox="0 0 22 22">
        <path fill-rule="evenodd" d="M11 17a6 6 0 1 0 0-12 6 6 0 0 0 0 12Zm0-2a4 4 0 1 0 0-8 4 4 0 0 0 0 8Z"
            clip-rule="evenodd" />
        <path d="M17 4c-.552 0-1 .672-1 1.5S16.448 7 17 7s1-.672 1-1.5S17.552 4 17 4Z" />
        <path fill-rule="evenodd"
            d="M.654 3.276C0 4.56 0 6.24 0 9.6v2.8c0 3.36 0 5.04.654 6.324a6 6 0 0 0 2.622 2.622C4.56 22 6.24 22 9.6 22h2.8c3.36 0 5.04 0 6.324-.654a6 6 0 0 0 2.622-2.622C22 17.44 22 15.76 22 12.4V9.6c0-3.36 0-5.04-.654-6.324A6 6 0 0 0 18.724.654C17.44 0 15.76 0 12.4 0H9.6C6.24 0 4.56 0 3.276.654A6 6 0 0 0 .654 3.276ZM12.4 2H9.6c-1.713 0-2.878.002-3.778.075-.877.072-1.325.202-1.638.361a4 4 0 0 0-1.748 1.748c-.16.313-.29.761-.36 1.638C2.001 6.722 2 7.887 2 9.6v2.8c0 1.713.002 2.878.075 3.778.072.877.202 1.325.361 1.638a4 4 0 0 0 1.748 1.748c.313.16.761.29 1.638.36.9.074 2.065.076 3.778.076h2.8c1.713 0 2.878-.002 3.778-.075.877-.072 1.325-.202 1.638-.361a4 4 0 0 0 1.748-1.748c.16-.313.29-.761.36-1.638.074-.9.076-2.065.076-3.778V9.6c0-1.713-.002-2.878-.075-3.778-.072-.877-.202-1.325-.361-1.638a4 4 0 0 0-1.748-1.748c-.313-.16-.761-.29-1.638-.36C15.278 2.001 14.113 2 12.4 2Z"
            clip-rule="evenodd" />
    </symbol>
    <symbol id="phone" viewBox="0 0 40 40">
        <path fill-rule="evenodd" clip-rule="evenodd"
            d="M14.167 4.87a2.5 2.5 0 0 0-2.5 2.5v25.26a2.5 2.5 0 0 0 2.5 2.5h11.666a2.5 2.5 0 0 0 2.5-2.5V7.37a2.5 2.5 0 0 0-2.5-2.5h-.139l-.406.974A1.667 1.667 0 0 1 23.75 6.87h-7.5c-.673 0-1.28-.405-1.538-1.026l-.406-.974h-.14Zm-5.834 2.5a5.833 5.833 0 0 1 5.834-5.833h11.666a5.833 5.833 0 0 1 5.834 5.833v25.26a5.833 5.833 0 0 1-5.834 5.834H14.167a5.833 5.833 0 0 1-5.834-5.834V7.37Z" />
    </symbol>
    <symbol id="message" viewBox="0 0 40 40">
        <path fill-rule="evenodd" clip-rule="evenodd"
            d="M36.54 17.611a12.92 12.92 0 0 1-1.634 4.645c.062.356.094.716.094 1.077 0 1.255-.364 2.456-1.037 3.547-.336.544-.423 1.182-.456 1.604a10.64 10.64 0 0 0 .01 1.52c.038.57.108 1.168.188 1.732-.65-.19-1.355-.38-2.028-.532a14.5 14.5 0 0 0-1.651-.288c-.453-.046-1.107-.082-1.691.107a13.56 13.56 0 0 1-4.168.643c-1.764 0-3.383-.313-4.802-.856-.342.015-.685.023-1.032.023-2.007 0-3.94-.264-5.748-.752C15.214 33.121 19.547 35 24.167 35c1.805 0 3.537-.277 5.133-.786h.016c.04-.002.155-.004.367.018.334.035.764.112 1.26.224.988.222 2.097.551 2.962.825 1.833.583 3.61-1.018 3.282-2.878-.14-.801-.287-1.778-.345-2.625a7.402 7.402 0 0 1-.012-1.032c.009-.106.02-.173.026-.208.938-1.553 1.477-3.322 1.477-5.205 0-2.122-.659-4.06-1.794-5.722Z" />
        <path fill-rule="evenodd" clip-rule="evenodd"
            d="M9.328 9.497c-2.246 1.718-3.495 3.973-3.495 6.337 0 1.178.307 2.313.883 3.368.219.402.281.817.303 1.097.025.307.012.621-.014.915-.053.59-.18 1.257-.333 1.914a38.732 38.732 0 0 1-.639 2.358c.88-.32 1.843-.647 2.755-.914a17.94 17.94 0 0 1 2.144-.506c.571-.09 1.4-.18 2.113.068 1.6.553 3.391.866 5.288.866 3.579 0 6.757-1.11 9.005-2.83 2.247-1.718 3.495-3.973 3.495-6.337 0-2.363-1.248-4.618-3.495-6.336-2.248-1.72-5.426-2.83-9.005-2.83-3.578 0-6.756 1.11-9.005 2.83ZM7.304 6.85c2.879-2.201 6.784-3.516 11.03-3.516 4.245 0 8.15 1.315 11.03 3.516 2.88 2.203 4.803 5.365 4.803 8.985 0 3.62-1.923 6.78-4.804 8.984-2.88 2.201-6.784 3.515-11.03 3.515-2.238 0-4.376-.364-6.318-1.028-.002.005-.159-.01-.562.053-.464.074-1.057.218-1.731.414-1.343.392-2.85.946-3.999 1.393-1.99.774-4.016-1.136-3.345-3.172.355-1.078.774-2.441 1.047-3.618a11.44 11.44 0 0 0 .26-1.461c.012-.128.015-.222.014-.285A10.293 10.293 0 0 1 2.5 15.833c0-3.62 1.923-6.78 4.804-8.984Zm-3.61 13.69.001.013a.092.092 0 0 1-.002-.014Z" />
    </symbol>
    <symbol id="formSubmitionSucessful" viewBox="0 0 330 330">
        <path stroke="#7CC05B" stroke-linecap="round" stroke-linejoin="round" stroke-width="20"
            d="m96.333 156.417 51.5 51.5L190.75 165l42.917-42.917M165 319.5A154.502 154.502 0 0 1 55.752 55.752 154.5 154.5 0 1 1 165 319.5Z" />
    </symbol>
    <symbol id="formSubmitionUnsucessful" viewBox="0 0 32 32" fill="red">
        <path stroke="rgba(255,0,0,0.052)"
            d="M16.5 29C9.596 29 4 23.404 4 16.5S9.596 4 16.5 4 29 9.596 29 16.5 23.404 29 16.5 29zm0-1C22.851 28 28 22.851 28 16.5S22.851 5 16.5 5 5 10.149 5 16.5 10.149 28 16.5 28zm-.019-7C13 21 11 23 11 23v-1s2-2 5.481-2S22 22 22 22v1s-2.037-2-5.519-2zm4.141-11.033-.559.829 3.316 2.237.559-.829-3.316-2.237zm-11.56 2.237.559.829 3.316-2.237-.559-.829-3.316 2.237zM12 15a1 1 0 1 0 0-2 1 1 0 0 0 0 2zm9 0a1 1 0 1 0 0-2 1 1 0 0 0 0 2z" />
    </symbol>
</svg>